<?xml version="1.0" standalone="no"?>
<!DOCTYPE svg PUBLIC "-//W3C//DTD SVG 1.1//EN" "http://www.w3.org/Graphics/SVG/1.1/DTD/svg11.dtd" >
<svg xmlns="http://www.w3.org/2000/svg" xmlns:xlink="http://www.w3.org/1999/xlink" version="1.1">
<metadata></metadata>
<defs>
<font id="bavroregular" horiz-adv-x="1464" >
<font-face units-per-em="2048" ascent="1638" descent="-410" />
<missing-glyph horiz-adv-x="1024" />
<glyph horiz-adv-x="0" />
<glyph horiz-adv-x="682" />
<glyph unicode=" "  horiz-adv-x="1024" />
<glyph unicode="&#x09;" horiz-adv-x="1024" />
<glyph unicode="&#xa0;" horiz-adv-x="1024" />
<glyph unicode="!" horiz-adv-x="256" d="M79 18q-14 28 0 56t48 28t48 -28t0 -56t-48 -28t-48 28zM82 217v1258q0 28 23 39t46 -0.5t23 -38.5v-1258q0 -28 -23 -39.5t-46 0t-23 39.5z" />
<glyph unicode="&#x22;" horiz-adv-x="446" d="M82 1483v233q0 28 23 39.5t46 0t23 -39.5v-233q0 -28 -23 -39.5t-46 0t-23 39.5zM272 1483v233q0 28 23 39.5t46.5 0t23.5 -39.5v-233q0 -28 -23.5 -39.5t-46.5 0t-23 39.5z" />
<glyph unicode="#" horiz-adv-x="1292" d="M87.5 472q-11.5 23 0 46t39.5 23h209q13 47 36.5 142t35.5 142h-281q-28 0 -39.5 23.5t0 46.5t39.5 23h303q16 66 48.5 200t49.5 201q7 27 31.5 32t44 -12.5t12.5 -44.5q-16 -62 -46.5 -187.5t-45.5 -188.5h365q16 66 48.5 200t49.5 201q7 27 31.5 32t44 -12.5 t12.5 -44.5q-16 -62 -46 -187.5t-46 -188.5h184q27 0 38 -23t0 -46.5t-38 -23.5h-206q-6 -24 -70 -284h276q27 0 38 -23t0 -46t-38 -23h-299q-16 -63 -49.5 -200.5t-52.5 -209.5q-4 -17 -16 -26t-25.5 -8t-25.5 7t-18.5 20t-2.5 31q80 328 94 386h-362q-15 -60 -49.5 -198.5 t-53.5 -211.5q-4 -17 -16 -26t-25.5 -8t-25.5 7t-18.5 20t-2.5 31q16 63 94 386h-186q-28 0 -39.5 23zM432 541h363q13 47 36 142t35 142h-364q-12 -47 -35 -142t-35 -142z" />
<glyph unicode="$" horiz-adv-x="1187" d="M82 467q-1 28 21.5 39.5t46 0t24.5 -39.5q3 -101 56 -184.5t138.5 -133t186.5 -57.5h6v563q-13 0 -41 4q-104 15 -179.5 42t-131.5 85q-96 101 -109 250q-6 91 26.5 177t91.5 149.5t140 106t170 53.5q5 0 16.5 1t16.5 1v159q0 28 23 39t46 -0.5t23 -38.5v-161 q184 -21 315.5 -150.5t137.5 -314.5q1 -28 -21.5 -39.5t-46 0t-24.5 39.5q-3 103 -55.5 184.5t-131.5 126t-174 57.5v-690q57 -8 97.5 -15t94.5 -21t92 -34.5t75 -49.5t59.5 -71t30.5 -95q13 -96 -14.5 -187.5t-94.5 -150.5q-109 -99 -338 -111h-2v-133q0 -28 -23 -39.5 t-46 0t-23 39.5v135q-197 20 -335 144.5t-144 320.5zM207 1161q-39 -138 29 -260q46 -78 125 -109.5t200 -46.5v682q-124 -6 -220.5 -74t-133.5 -192zM653 90q253 8 328 152q34 63 36 131.5t-32 127t-98 87.5q-85 40 -234 55v-553z" />
<glyph unicode="%" horiz-adv-x="1214" d="M83 40q-3 13 7 26q23 31 63.5 87t55.5 76q137 190 412.5 571t412.5 572q22 31 62 18q32 -9 36 -33q2 -15 -8 -28q-6 -8 -49.5 -70.5t-66.5 -93.5q-651 -899 -826 -1142q-22 -31 -63 -18q-32 10 -36 35zM96 1176v8v8q2 81 43.5 138t120.5 67q86 12 153.5 -39.5 t71.5 -138.5q3 -79 -38.5 -138.5t-118.5 -72.5q-86 -15 -154.5 34t-77.5 134zM188 1184q3 -55 57.5 -78.5t100.5 4.5q54 30 47 109q-6 54 -53 77.5t-96 1.5q-35 -17 -45.5 -43.5t-10.5 -70.5zM735 178v10v9q2 81 43 137t121 67q87 12 154 -40t71 -138q3 -79 -38.5 -138.5 t-118.5 -74.5q-85 -15 -154 34.5t-78 133.5zM827 188q2 -37 29 -61.5t61.5 -26t67.5 14.5q54 30 47 108q-6 53 -53.5 77.5t-95.5 0.5q-35 -16 -45.5 -42.5t-10.5 -70.5z" />
<glyph unicode="&#x26;" horiz-adv-x="1658" d="M103.5 157.5q-47.5 169.5 13.5 327.5q54 122 165 218t253 161q-76 79 -126 151t-79.5 163.5t-16.5 179.5q18 128 92 218.5t183.5 127t236.5 16.5q179 -28 278.5 -166.5t61.5 -316.5q-18 -88 -69.5 -165t-126.5 -132q-36 -27 -84.5 -49t-76.5 -31.5t-91 -28.5 q92 -96 280 -284q187 -187 279 -281q34 96 51 213q5 34 38 35q33 0 49 -28q9 -15 7 -33q-18 -131 -69 -263q35 -36 105.5 -107.5t105.5 -107.5q13 -13 14.5 -28.5t-6.5 -27.5t-20.5 -20t-28 -6t-27.5 15l-186 186q-111 -218 -283 -311q-179 -97 -390 -71t-362 163 q-123 113 -170.5 282.5zM184 311q-1 -67 19 -143q25 -82 77 -151.5t120.5 -115t150.5 -73t166 -26t168 25.5q229 73 352 340q-71 71 -213.5 214.5t-214.5 215.5q-33 33 -103.5 100t-97.5 93q-66 -28 -124.5 -63t-113.5 -80t-93.5 -96.5t-65 -112.5t-27.5 -128zM412 1231 q5 -25 15.5 -50.5t18 -43.5t27.5 -45t27 -38t34.5 -40.5t32 -34.5t38 -38t34.5 -34q3 1 13.5 5t15.5 6q69 21 108 36t91.5 41t91 62.5t67.5 85.5q38 63 48.5 136.5t-11 145.5t-76.5 121q-70 64 -183.5 83.5t-201.5 -17.5q-106 -43 -159 -154t-31 -227z" />
<glyph unicode="'" horiz-adv-x="256" d="M82 1483v233q0 28 23 39.5t46 0t23 -39.5v-233q0 -28 -23 -39.5t-46 0t-23 39.5z" />
<glyph unicode="(" horiz-adv-x="526" d="M81 1014.5q0 67.5 1 126.5q2 157 77.5 286t211.5 205q15 8 30 6.5t24 -12t13.5 -23.5t-0.5 -27t-20 -22q-244 -139 -244 -440v-375v-379q0 -144 62 -256.5t186 -181.5q15 -8 20.5 -22t1 -26.5t-13.5 -23t-23.5 -12.5t-29.5 6q-139 75 -216 205t-79 289v401q0 44 -0.5 126 t-0.5 149.5z" />
<glyph unicode=")" horiz-adv-x="528" d="M84.5 1570q-4.5 14 0 27t14 24t24 13t29.5 -6q138 -76 215 -206t79 -287v-402v-401q-2 -157 -78 -286.5t-212 -207.5q-15 -8 -29.5 -6t-23.5 13t-13.5 24t1 27t20.5 22q122 69 182.5 182t60.5 258v375v377q-2 145 -64 258t-186 180q-15 8 -19.5 22z" />
<glyph unicode="*" horiz-adv-x="485" d="M87.5 1559q-11.5 23 0 46t39.5 23h4l-4 4q-7 7 -10.5 16t-2.5 17.5t5 16.5t10 14t14 10t16.5 5t17.5 -2.5t16 -10.5l4 -4v4q0 28 23 39.5t46 0t23 -39.5v-4l4 4q19 19 44 10t31.5 -31.5t-10.5 -44.5l-4 -4h4q28 0 39.5 -23t0 -46t-39.5 -23h-4l4 -4q12 -12 13 -26.5 t-6.5 -26t-19 -19.5t-26 -7t-26.5 13l-4 4v-4q0 -28 -23 -39.5t-46 0t-23 39.5v4l-4 -4q-15 -15 -33.5 -13t-30 15t-15 30.5t12.5 33.5l4 4h-4q-28 0 -39.5 23z" />
<glyph unicode="+" horiz-adv-x="907" d="M87.5 590q-11.5 23 0 46t39.5 23h281v281q0 28 23 39.5t46 0t23 -39.5v-281h280q28 0 39.5 -23t0 -46t-39.5 -23h-280v-280q0 -28 -23 -39.5t-46 0t-23 39.5v280h-281q-28 0 -39.5 23z" />
<glyph unicode="," horiz-adv-x="282" d="M-57.5 -180.5q11.5 23.5 39.5 24.5q34 1 58 14t37 30.5t20 47.5t9 53t3 58q0 28 23 39.5t46 0t23 -39.5q-1 -47 -3 -72.5t-11.5 -64.5t-26.5 -66q-50 -89 -178 -92q-28 -1 -39.5 21.5t0 46z" />
<glyph unicode="-" horiz-adv-x="907" d="M87.5 764.5q-11.5 23.5 0 46.5t39.5 23h653q28 0 39.5 -23t0 -46.5t-39.5 -23.5h-653q-28 0 -39.5 23.5z" />
<glyph unicode="." horiz-adv-x="499" d="M189 46.5q0 23.5 16.5 43t44.5 19.5t44.5 -19.5t16.5 -43t-16.5 -43t-44.5 -19.5t-44.5 19.5t-16.5 43z" />
<glyph unicode="/" horiz-adv-x="796" d="M84 -18q3 8 68 186q79 217 236.5 650t236.5 650q9 26 35 31t44 -11.5t9 -43.5q-11 -31 -33.5 -92.5t-34.5 -91.5q-79 -217 -235.5 -651.5t-235.5 -651.5q-9 -26 -35.5 -30.5t-45 12.5t-9.5 43z" />
<glyph unicode="0" d="M82.5 731.5q-10.5 254.5 107.5 462.5q73 131 192 219.5t260.5 115t289.5 -27.5q314 -117 432 -530q0 -1 1 -4t1 -4t1 -4.5t1 -4.5q17 -86 17 -176t-15.5 -177.5t-49 -170.5t-82 -154.5t-117.5 -130t-152 -96.5q-139 -60 -276 -47.5t-259 86t-205 193.5 q-136 196 -146.5 450.5zM174.5 797.5q-5.5 -141.5 38.5 -277.5t133 -239q130 -150 314.5 -181.5t351.5 78.5q87 60 150 150t93 189.5t37.5 209.5t-14.5 211q-24 87 -60 163t-87.5 144t-123.5 117t-159 70q-130 33 -256 -10t-218 -137t-143 -218q-51 -128 -56.5 -269.5z" />
<glyph unicode="1" horiz-adv-x="503" d="M81 1159q0 13 9 25q41 56 123 166.5t123 165.5q20 27 53 19t33 -44v-1446q0 -28 -23 -39.5t-46 0t-23 39.5v1309q-26 -36 -80 -107.5t-80 -107.5q-22 -30 -58 -16q-30 10 -31 36z" />
<glyph unicode="2" horiz-adv-x="1185" d="M82 1040q3 105 50 196t123 152t175 93.5t203 25.5q181 -11 315 -123t154 -288q11 -86 -18.5 -176t-73.5 -156t-111 -143q-239 -276 -610 -529h772q28 0 39 -23t-0.5 -46t-38.5 -23h-924q-35 0 -43.5 33.5t19.5 52.5q77 49 233 162q233 174 393 336q66 66 109.5 115.5 t90.5 124.5t65 145q27 104 -12.5 201t-123 159t-186.5 80q-121 21 -236 -18t-191.5 -133t-80.5 -218q-1 -28 -24.5 -39.5t-46 0t-21.5 39.5z" />
<glyph unicode="3" horiz-adv-x="1142" d="M82 436q-1 28 21.5 39.5t46 0t24.5 -39.5q3 -86 43.5 -156t103 -112t141.5 -62t157 -13t152.5 42.5t125.5 97.5q81 100 71 225.5t-104 213.5q-68 66 -154.5 87t-205.5 21q-28 0 -39.5 23t0 46t39.5 23q99 3 182.5 52t118.5 137q33 88 5 170.5t-103 136.5q-35 26 -75 41.5 t-91 20.5t-85 6.5t-96.5 -0.5t-85.5 -2q-28 0 -39.5 23t0 46t39.5 23q185 0 228 -3q202 -15 305 -118q31 -31 55 -68q60 -97 55 -190.5t-56 -170.5t-136 -128q160 -45 252 -164q89 -116 84.5 -259.5t-98.5 -256.5q-65 -76 -157 -118.5t-187.5 -48.5t-191 21t-170.5 81 t-123.5 141t-51.5 192z" />
<glyph unicode="4" horiz-adv-x="1038" d="M84 545q17 46 350 948q8 26 34 30.5t44.5 -12.5t9.5 -43q-54 -148 -163.5 -445t-163.5 -445h669v913q0 28 23 39.5t46 0t23 -39.5v-1446q0 -28 -23 -39.5t-46 0t-23 39.5v440h-735q-22 0 -37 19.5t-8 40.5z" />
<glyph unicode="5" horiz-adv-x="1144" d="M82 457q-1 28 21.5 39.5t46 0t24.5 -39.5q4 -117 72.5 -208t174.5 -131.5t220 -23.5q84 13 156 60t115.5 114.5t56.5 150t-21 165.5q-22 56 -58.5 99t-77 69t-96.5 43t-104.5 24.5t-114 9.5t-113 0.5t-113 -4t-103.5 -2.5q-19 0 -33 14t-14 33v613q0 19 14 32t33 13 q504 4 754 8q28 0 39.5 -23t0 -46t-39.5 -23q-590 -5 -709 -6v-523h352q138 0 257.5 -63t185.5 -180q70 -128 50 -272.5t-120 -249.5q-70 -74 -162.5 -111.5t-185.5 -38.5t-184 30.5t-161 89.5t-115 146t-48 191z" />
<glyph unicode="6" horiz-adv-x="1140" d="M82 481q-3 74 6 148q0 10 2 18q35 286 216.5 530t445.5 363q25 12 47.5 -4t22.5 -38.5t-23 -37.5q-132 -57 -283 -190q-208 -192 -291 -436q100 78 238 108q135 27 263.5 -21t217.5 -155q78 -93 102.5 -206.5t-2.5 -216t-105 -188t-194 -126.5q-79 -27 -160 -28t-152 21 t-134.5 65.5t-110 102t-75 134t-31.5 157.5zM176 618q-22 -201 47 -325q53 -94 147.5 -146.5t204.5 -52.5q78 0 148.5 26.5t120.5 71.5t82 106t40 126.5t-12.5 137t-70.5 134.5q-73 95 -183 137.5t-227 16.5q-101 -23 -184.5 -81.5t-110.5 -145.5q0 -5 -2 -5z" />
<glyph unicode="7" horiz-adv-x="1110" d="M87.5 1467q-11.5 23 0 46t39.5 23h856q26 0 38.5 -23t0.5 -45q-48 -94 -94 -182q-109 -211 -328.5 -631.5t-329.5 -631.5q-8 -15 -22 -20t-26.5 -0.5t-23.5 13.5t-13 23.5t5 30.5q15 30 47.5 91t47.5 91q572 1097 622 1192h-780q-28 0 -39.5 23z" />
<glyph unicode="8" horiz-adv-x="1243" d="M94 553q26 116 110.5 205t198.5 121q-78 44 -128.5 110.5t-59.5 149.5q-10 88 20 161t87 119t133.5 73t157 29.5t159.5 -18t139 -63.5q92 -66 125 -174t-6 -213q-43 -124 -174 -183q140 -59 225 -172q63 -87 76.5 -182t-18.5 -178t-93 -153.5t-147.5 -117t-181.5 -61.5 q-95 -14 -195 3.5t-186.5 65t-150.5 115.5t-90 163t-1 200zM186.5 542q-25.5 -107 18 -208t141.5 -164q130 -85 298 -79t290 104q123 98 132 244.5t-105 254.5q-105 102 -254 121q-46 4 -68 4q-147 -12 -205 -29q-77 -21 -131 -65q-91 -76 -116.5 -183zM303 1174 q2 -224 342 -263q9 1 24.5 3.5t20.5 3.5q93 12 163.5 55t94.5 123q25 84 -6 161t-106 123q-66 40 -157.5 48t-175 -14t-142 -85t-58.5 -155z" />
<glyph unicode="9" horiz-adv-x="1140" d="M94.5 985q-24.5 114 2 216.5t104.5 188.5t194 126q79 28 160 29t152.5 -21t135 -65.5t110 -102.5t75 -134.5t31.5 -158.5q3 -74 -6 -145q2 -6 -2 -19q-35 -287 -215.5 -531t-446.5 -364q-25 -12 -47.5 4t-22 38.5t24.5 37.5q140 65 281 192q206 187 290 435 q-105 -82 -237 -107q-135 -29 -263.5 19t-217.5 155q-78 93 -102.5 207zM180 1010.5q18 -86.5 78 -162.5q75 -95 184 -137.5t226 -16.5q101 24 184.5 83.5t110.5 146.5q0 2 2 4q22 201 -47 323q-52 95 -146.5 148t-204.5 53q-95 0 -176 -37.5t-132 -101t-74 -140t-5 -163z " />
<glyph unicode=":" horiz-adv-x="251" d="M67 502q-3 18 1 36.5t19.5 31t37.5 12.5q23 0 38.5 -12.5t18.5 -31t-1 -36.5t-19.5 -30.5t-38.5 -12.5t-38 12.5t-18 30.5zM72.5 948.5q-14.5 30.5 1.5 61t53 30.5q38 0 53 -30.5t-1 -61t-54 -30.5t-52.5 30.5z" />
<glyph unicode=";" horiz-adv-x="282" d="M-57.5 -180.5q11.5 23.5 39.5 24.5q34 1 58 14t37 30.5t20 47.5t9 53t3 58q0 28 23 39.5t46 0t23 -39.5q-1 -47 -3 -72.5t-11.5 -64.5t-26.5 -66q-50 -89 -178 -92q-28 -1 -39.5 21.5t0 46zM93 304.5q0 23.5 16.5 43t44.5 19.5t44.5 -19.5t16.5 -43t-16.5 -43 t-44.5 -19.5t-44.5 19.5t-16.5 43z" />
<glyph unicode="=" horiz-adv-x="907" d="M87.5 394q-11.5 23 0 46t39.5 23h653q28 0 39.5 -23t0 -46t-39.5 -23h-653q-28 0 -39.5 23zM87.5 752q-11.5 23 0 46t39.5 23h653q28 0 39.5 -23t0 -46t-39.5 -23h-653q-28 0 -39.5 23z" />
<glyph unicode="&#x3e;" horiz-adv-x="1228" d="M376.5 426q-0.5 24 24.5 41q71 37 215 110.5t215 110.5q-177 94 -430 225q-16 9 -22 23.5t-1 28.5t15 25.5t26 14t32 -5.5q497 -260 512 -268q25 -12 25 -42.5t-25 -43.5q-258 -131 -512 -262q-26 -14 -50 2.5t-24.5 40.5z" />
<glyph unicode="?" horiz-adv-x="1167" d="M82 1051q4 171 121 299t289 159q149 27 289.5 -24.5t224.5 -171.5q61 -86 76 -187.5t-21 -199.5q-48 -124 -154 -195q-21 -16 -75.5 -46.5t-81.5 -53.5q-135 -112 -138 -244q0 -17 11 -168q1 -28 -22 -39t-46.5 0.5t-24.5 38.5q-4 84 -4.5 153t25 140t80.5 133 q34 37 91 77t102 67.5t89 73.5t64 102q49 135 -29 265.5t-217 176.5q-76 22 -153 21t-149 -31.5t-127.5 -77.5t-90.5 -117.5t-37 -150.5q-1 -28 -24.5 -39.5t-46 0t-21.5 39.5zM538 18q-14 28 0 56t48 28q33 0 46.5 -28t0 -56t-46.5 -28q-34 0 -48 28z" />
<glyph unicode="@" horiz-adv-x="1746" d="M85.5 829q11.5 152 78.5 289q54 111 139.5 199.5t190 144.5t220.5 83.5t239 18.5t237 -53q127 -50 231.5 -144t165.5 -213.5t75 -256.5t-40 -272q-45 -111 -138 -166.5t-212 -38.5q-198 26 -238 227q-78 -156 -190 -213q-99 -54 -188 -16t-109 149q-19 114 20 246.5 t121 206.5q62 57 154.5 76t173.5 -2q27 -6 32 -30.5t-12.5 -44.5t-44.5 -13q-82 18 -151.5 -8t-113 -82t-67.5 -128.5t-24 -150.5q0 -107 43 -133q30 -19 66.5 -10.5t66.5 27.5t51 44q115 125 176 367q7 28 30 32.5t42.5 -13t15.5 -44.5q-6 -39 -9 -66t-6 -71t2 -76.5 t15.5 -67.5t33 -60.5t55.5 -39.5q59 -27 132 -19.5t121 50.5q49 45 74.5 120t25 147t-10.5 141q-30 162 -142 283.5t-265 179t-316 45.5q-168 -11 -313 -98t-237.5 -229t-109.5 -310q-17 -166 41.5 -321.5t179.5 -270.5t281 -164q94 -30 201.5 -32.5t213 24t199 75.5 t167 128t110.5 176q9 26 35 30.5t44 -12.5t9 -43q-42 -111 -121 -201t-177.5 -147t-215 -88t-233 -31.5t-232.5 29t-213 88.5q-129 79 -219.5 201.5t-131 261t-29 290.5z" />
<glyph unicode="A" horiz-adv-x="1210" d="M2 55q80 216 524 1434q12 33 44.5 33t43.5 -33q32 -90 222 -622t290 -814q9 -26 -9 -42t-44 -11.5t-35 29.5q-16 45 -62 173.5t-71 198.5h-678q-99 -270 -137 -370q-8 -26 -33.5 -30.5t-44 12t-10.5 42.5zM260 494h612q-66 188 -303 849q-55 -153 -159.5 -438 t-149.5 -411z" />
<glyph unicode="B" horiz-adv-x="1173" d="M82 1473q0 19 13 32t32 13q52 0 155 1t154 1q79 0 128 -3.5t113 -22t114 -54.5q99 -72 137 -184q18 -53 18 -108q0 -61 -22 -122q-49 -119 -160 -182q167 -48 256 -178q71 -105 71 -224q1 -28 -3 -57q-20 -152 -136 -256q-88 -78 -192.5 -102.5t-251.5 -24.5 q-63 0 -187.5 1t-185.5 1q-22 0 -31 12q-2 0 -2 2h-2q-12 12 -12 31q0 238 -3 712.5t-3 711.5zM174 1427q0 -222 3 -666.5t3 -666.5h238q21 0 77 -2q42 -1 70 -1q9 1 17 1q31 0 76 5t81 16q101 31 172 107.5t87 172.5q4 22 3 44q0 75 -40 153q-32 57 -79 96t-105 58.5 t-115 27.5t-125 8q-27 0 -38 22.5t0 45.5t38 24q82 2 155 36q74 35 120 102q43 62 42 138v13q-3 79 -51 140.5t-118 92.5t-148 33q0 2 -65 2q-43 0 -116 -1z" />
<glyph unicode="C" horiz-adv-x="1378" d="M82 796q2 105 28.5 207.5t75.5 188.5q85 153 230 246t313 94h8q370 0 549 -270q16 -23 2.5 -44.5t-38 -21.5t-42.5 21q-50 75 -126.5 127.5t-162.5 76.5q-78 22 -162 22q-9 -1 -17 -1q-93 -2 -177 -33q-122 -44 -212.5 -145.5t-134.5 -225t-46 -254.5v-13q0 -124 36 -243 q38 -125 123 -231.5t203 -159.5q86 -39 183 -47q25 -2 49 -2q71 0 139 17q91 22 172 76t133 132q16 23 43 21t38.5 -22t-1.5 -46q-110 -162 -288 -226q-114 -41 -236 -41q-68 0 -139 13q-107 20 -198 73.5t-154.5 130.5t-108.5 171.5t-64 198.5q-18 97 -18 195v15z" />
<glyph unicode="D" horiz-adv-x="1177" d="M82 1470q0 19 13 32.5t32 13.5q44 0 117.5 2.5t127.5 4.5q27 1 59 1q33 0 69 -1q74 -2 130 -8.5t120 -23.5t113.5 -43t96 -68.5t78.5 -99.5q21 -36 34 -76t18 -90q4 -52 6 -82q1 -15 0.5 -38.5t-0.5 -54.5q-2 -63 -2 -83v-422q-5 -128 -76 -228t-181 -152.5t-237 -53.5 q-52 -1 -121 -1q-138 0 -344 3q-19 0 -33 13t-14 32q0 238 -3 711.5t-3 711.5zM174 1425q0 -222 3 -666.5t3 -666.5q26 -1 84 -3q92 -1 190 -5q20 -1 41 -1q79 1 155 15q96 18 172.5 50t125.5 105.5t53 180.5v369q1 25 5 115q3 51 2 92q0 32 -2 60q-4 62 -21 112 q-21 59 -58.5 103t-81.5 70t-101 41.5t-109 21t-113 5.5q-233 0 -348 2z" />
<glyph unicode="E" horiz-adv-x="1161" d="M82 45v1423q0 19 13 32t32 13h909q27 0 38 -22.5t0 -45t-38 -22.5h-862v-442h772q27 0 38 -23t0 -46t-38 -23h-772v-797h862q27 0 38 -23t0 -46t-38 -23h-909q-19 0 -32 13t-13 32z" />
<glyph unicode="F" horiz-adv-x="1161" d="M82 45v1440q0 19 13 33t32 14h909q27 0 38 -23t0 -46t-38 -23h-862v-443h772q27 0 38 -22.5t0 -45t-38 -22.5h-772v-862q0 -28 -23 -39.5t-46 0t-23 39.5z" />
<glyph unicode="G" horiz-adv-x="1398" d="M84 846q9 101 41 200.5t86 182.5q101 154 253 229q142 70 316 70h23q135 -3 250 -61t187.5 -165.5t76.5 -242.5q1 -28 -21.5 -39.5t-46 0t-24.5 39.5q-2 78 -31.5 142.5t-77 108t-111 73t-132.5 41.5q-64 12 -131 12h-11q-126 -2 -230 -55.5t-170.5 -140.5t-107 -199.5 t-47.5 -229.5q-1 -23 -1 -47q0 -94 21 -188q26 -117 83 -211q83 -134 210.5 -203.5t286.5 -69.5q107 1 201 38t161.5 114t82.5 180h-361q-28 0 -39.5 23t0 46t39.5 23h412q19 0 32.5 -13.5t12.5 -31.5q-3 -114 -52.5 -206t-130 -149t-180.5 -87q-97 -29 -202 -29h-7 q-111 1 -209 35.5t-172 94.5t-132 141.5t-92.5 174.5t-49.5 196q-9 65 -9 129q0 38 3 75z" />
<glyph unicode="H" horiz-adv-x="1124" d="M82 43v1407q0 28 23 39.5t46 0t23 -39.5v-420h776v420q0 28 23 39.5t46 0t23 -39.5v-1407q0 -28 -23 -39t-46 0.5t-23 38.5v897h-776v-897q0 -28 -23 -39t-46 0.5t-23 38.5z" />
<glyph unicode="I" horiz-adv-x="499" d="M205 43v1425q0 28 22.5 39.5t45 0t22.5 -39.5v-1425q0 -28 -22.5 -39.5t-45 0t-22.5 39.5z" />
<glyph unicode="J" horiz-adv-x="1181" d="M82 461q-1 28 21.5 39.5t46 0t24.5 -39.5q2 -70 28 -131.5t69 -106.5t100.5 -77.5t120.5 -46.5q50 -11 104 -11h27q68 4 131 27q119 46 186.5 145t67.5 227v332v619h-445q-28 0 -39.5 23t0 46t39.5 23h490q19 0 33 -14t14 -33v-367v-510v-43v-47t-1 -41.5t-3 -46.5 t-6 -41t-9 -46t-13.5 -40t-18.5 -43q-54 -104 -148.5 -168.5t-198.5 -82.5q-47 -8 -94 -8q-60 0 -120 13q-110 22 -198 78.5t-146 153.5t-62 217z" />
<glyph unicode="K" horiz-adv-x="1136" d="M82 43v1425q0 28 23 39.5t46 0t23 -39.5v-684q158 144 463 418.5t338 304.5q20 19 45.5 10.5t31 -30.5t-13.5 -43q-77 -69 -231.5 -209.5t-231.5 -210.5q1 -1 2.5 -3t2.5 -3q77 -159 231 -476.5t231 -475.5q13 -25 -2.5 -47.5t-38 -22.5t-38.5 22q-147 306 -457 943 q-54 -49 -164 -147.5t-164 -147.5l-4 -4v-619q0 -28 -23 -39.5t-46 0t-23 39.5z" />
<glyph unicode="L" horiz-adv-x="1103" d="M82 47v1428q0 27 23 38t46 0t23 -38v-1381h803q28 0 39.5 -23t0 -46t-39.5 -23h-850q-19 0 -32 13t-13 32z" />
<glyph unicode="M" horiz-adv-x="1435" d="M82 41v1432q0 30 28 40.5t50 -8.5q64 -54 176.5 -147.5t205.5 -172t175 -147.5q357 296 559 465q22 20 50 9t28 -42v-1429q0 -28 -23 -39t-46 0.5t-23 38.5v1333q-387 -325 -512 -428q-16 -13 -32 -13l-32 13q-274 228 -512 428v-1333q0 -28 -23 -39t-46 0.5t-23 38.5z " />
<glyph unicode="N" horiz-adv-x="1198" d="M82 45v1448q0 35 33.5 43.5t52.5 -20.5l56 -87.5t63 -95.5q90 -138 344.5 -529t394.5 -605v1294q0 27 22.5 38t45 0t22.5 -38v-1448q0 -35 -33.5 -44t-50.5 19q-23 33 -63 95.5l-56 87.5q-204 312 -739 1136v-1294q0 -28 -23 -39.5t-46 0t-23 39.5z" />
<glyph unicode="O" d="M82 732q-1 21 0 41q0 230 108 421q73 131 192 220q118 88 260 114q47 9 94 9q96 0 196 -36q314 -117 432 -530q0 -1 1 -4t1 -4t1 -4.5t1 -4.5q17 -86 17 -176t-15.5 -177.5t-49 -170.5t-82 -154.5t-117.5 -130t-152 -96.5q-115 -50 -229 -50q-24 1 -47 3 q-137 12 -259 85.5t-205 193.5q-137 197 -147 451zM174 798q-1 -16 0 -32q0 -125 39 -246q44 -136 133 -239q130 -149 314 -181q41 -7 82 -8q140 0 270 86q87 60 150 150t93 190q29 99 37 209q2 28 2 55q0 80 -16 156q-24 87 -60 163t-87.5 144t-123.5 117t-159 70 q-56 14 -112 14q-73 0 -144 -24q-126 -43 -218 -137t-143 -218q-51 -127 -57 -269z" />
<glyph unicode="P" horiz-adv-x="1038" d="M82 1477q0 19 14 32t33 13h418q136 0 235 -29t174 -113q84 -94 92 -233q1 -15 0 -29q0 -121 -63 -213q-121 -176 -428 -176h-377h-2q4 -458 4 -686q0 -28 -23 -39.5t-46 0t-23 39.5q0 238 -4 716t-4 718zM174 1430q0 -203 4 -609h2h400q110 0 196 36q85 37 135 115 q42 67 42 156q0 16 -1 33q-7 101 -79 173t-175 91q-26 5 -53 6q-14 0 -32 1q-19 0 -41 -1q-46 -1 -54 -1h-344z" />
<glyph unicode="Q" horiz-adv-x="1466" d="M87 856q16 154 81 289q91 193 271 303q139 86 291 86q46 0 93 -8q124 -20 230.5 -93t178 -175t111.5 -224q42 -130 42 -265q0 -83 -15 -167q-42 -221 -182 -389q-17 -22 -41.5 -14.5t-32 30.5t7.5 47q132 158 163 370q9 63 9 123q0 146 -53 280q-65 169 -200.5 281 t-307.5 112q-179 0 -319 -123.5t-199 -302.5q-39 -129 -41 -258v-8q0 -125 44 -249q44 -128 128 -225q126 -146 301 -177q43 -8 86 -8q129 0 252 71q-47 22 -91 22q-37 0 -71 -16q-25 -12 -47 4t-21.5 38.5t23.5 37.5q60 29 122 29q44 0 89 -15q23 -8 72 -44t93 -56 q25 -11 47 -11q17 0 32 7q25 12 47.5 -4t22 -38.5t-24.5 -37.5q-28 -13 -55.5 -15.5t-53.5 4.5t-47 16.5t-47 25.5q-140 -98 -301 -109q-20 -1 -40 -1q-139 0 -264 64q-143 73 -241 213q-86 123 -122 274q-25 105 -25 211q0 48 5 95z" />
<glyph unicode="R" horiz-adv-x="1128" d="M82 1479q0 19 13 33t32 14h420q136 0 235 -29t174 -113q82 -96 90 -234q1 -15 1 -29q0 -120 -64 -214q-62 -91 -172 -135q103 -44 166 -125.5t67 -197.5q2 0 2 -114v-88l-2 -202q0 -28 -23 -39.5t-46 0t-23 39.5q0 40 0.5 111.5t0.5 130t-1 110.5q0 64 -9 110t-38 85 q-97 135 -340 139l-4 2q-19 0 -33 13t-14 32t13 32t32 13h4h2h13q82 1 151 22t122 62t81 107q22 53 21 117q0 16 -1 34q-9 100 -81 171.5t-175 90.5q-40 7 -180 7h-342q0 -332 2 -498v-62v-51l2 -221q2 -186 2 -557q0 -28 -23 -39.5t-46 0t-23 39.5q0 240 -3 718t-3 716z " />
<glyph unicode="S" horiz-adv-x="1181" d="M82 465q-1 28 21.5 39.5t46 0t24.5 -39.5q3 -100 55.5 -183.5t137.5 -132.5t184 -57q29 -4 61 -4q26 0 54 2q64 6 121.5 19t109 47t78.5 84q34 63 36 131v8q0 65 -32 119q-34 58 -98 88q-39 18 -89.5 30.5t-86.5 17t-98 11t-89 10.5q-104 15 -179.5 41.5t-131.5 83.5 q-94 102 -107 250q-1 14 -1 29q0 77 27 147q32 84 90.5 147t139.5 105t170 53q33 4 65 4q71 0 143 -20q102 -29 182 -89.5t130 -153.5t54 -201q0 -28 -22.5 -39.5t-45.5 0t-24 39.5q-2 77 -33 143t-80.5 111t-113.5 74q-65 29 -133 37q-29 4 -58 4q-40 0 -80 -6 q-70 -12 -129 -43t-105.5 -87t-68.5 -131q-17 -53 -17 -103q0 -80 43 -153q18 -31 41.5 -54.5t55.5 -40t57.5 -27t68 -18.5t64.5 -11t68 -9h1h1h1h1l1 -1h1h1h1h1h1h1h1l1 -1h1q192 -22 281 -54q187 -68 213 -235q4 -30 4 -59q0 -64 -19 -126q-28 -91 -94 -150 q-109 -100 -336 -111q-17 -1 -34 -1q-125 0 -237 46q-127 52 -210 162.5t-88 257.5z" />
<glyph unicode="T" horiz-adv-x="1288" d="M87.5 1446.5q-11.5 23.5 0 46.5t39.5 23h1034q28 0 39.5 -23t0 -46.5t-39.5 -23.5h-463v-1378q0 -28 -22.5 -39.5t-45 0t-22.5 39.5v1378h-481q-28 0 -39.5 23.5z" />
<glyph unicode="U" horiz-adv-x="1185" d="M82 541v344v583q0 28 23 39.5t46 0t23 -39.5v-602v-305q0 -7 -0.5 -43.5t0 -49t2.5 -40.5t7.5 -48.5t13.5 -41.5q37 -93 112 -153t163 -80q53 -12 107 -12q37 -1 75 5q94 14 171 58.5t128.5 125t54.5 181.5q4 149 4 317t-2 372.5t-2 315.5q0 28 23 39.5t46 0t23 -39.5 v-688q0 -31 1.5 -102.5t1.5 -110t-5 -101.5t-16 -106t-34 -93.5t-57 -90.5q-68 -79 -164 -124q-97 -46 -199 -50q-15 -1 -29 -1q-87 0 -171 23q-98 27 -179.5 94.5t-125.5 164.5q-18 39 -27.5 85.5t-11.5 81.5t-2 91z" />
<glyph unicode="V" horiz-adv-x="1292" d="M86 1468q-9 26 9 43t44 12.5t35 -30.5q78 -219 233.5 -657.5t233.5 -657.5q51 139 219 601t260 712q9 26 35 30.5t44 -12.5t9 -43q-412 -1130 -524 -1433q-10 -32 -43 -32t-45 32l-255 717t-255 718z" />
<glyph unicode="W" horiz-adv-x="1435" d="M82 45v1448q0 28 23 39.5t46 0t23 -39.5v-1350q89 74 260.5 217.5t251.5 210.5q16 13 32 13l32 -13q70 -58 512 -430v1352q0 28 23 39.5t46 0t23 -39.5v-1448q0 -31 -28 -42t-50 9q-93 78 -279.5 233.5t-279.5 233.5q-82 -69 -175 -147.5t-205.5 -172t-176.5 -147.5 q-22 -20 -50 -9t-28 42z" />
<glyph unicode="X" horiz-adv-x="1296" d="M87 22.5q-11 19.5 3 43.5q21 30 64 89t65 89q63 85 188 256t187 256q-82 114 -246 341t-246 341q-16 23 -2.5 44.5t38 22t42.5 -19.5q21 -30 65 -90.5t66 -89.5q46 -63 161 -223t179 -248q79 109 237.5 326t237.5 325q17 22 44 19t37.5 -22.5t-3.5 -43.5q-22 -30 -65 -88 t-64 -88q-62 -84 -184 -253t-184 -253q134 -184 497 -690q17 -22 3.5 -43t-38 -22t-43.5 19q-22 29 -65 89t-64 90q-101 137 -346 479q-22 -30 -481 -658q-17 -22 -44.5 -19.5t-38.5 22z" />
<glyph unicode="Y" horiz-adv-x="1296" d="M87 1498.5q14 21.5 39 22t44 -19.5q79 -107 236.5 -320.5t236.5 -320.5q71 95 151.5 201.5t178.5 237t153 202.5q15 20 36 20q10 0 22 -5q29 -11 30 -37q0 -13 -10 -25q-106 -141 -514 -680v-729q0 -28 -22.5 -39.5t-45 0t-22.5 39.5v721q-85 115 -255 344t-255 344 q-17 23 -3 44.5z" />
<glyph unicode="Z" horiz-adv-x="1255" d="M88 23.5q-15 23.5 0 46.5q34 45 125 176q138 195 413.5 586.5t413.5 586.5h-880q-28 0 -39.5 23t0 46t39.5 23h968q24 0 39 -24t0 -45q-79 -111 -125 -176q-137 -195 -412.5 -587t-412.5 -587h911q27 0 38 -23t0 -46t-38 -23h-999q-26 0 -41 23.5z" />
<glyph unicode="[" horiz-adv-x="434" d="M82 76v1513q0 19 14 32t33 13h178q28 0 39.5 -23t0 -46t-39.5 -23h-133v-168v-1466h133q28 0 39.5 -23t0 -46t-39.5 -23h-178q-19 0 -33 14t-14 33v213z" />
<glyph unicode="\" horiz-adv-x="813" d="M86 1540q-9 26 8 47t42 20.5t34 -26.5q8 -21 21.5 -58t25.5 -68.5t23 -59.5q113 -297 487 -1295q9 -26 -7.5 -47t-41 -20t-33.5 28q-12 30 -35.5 92.5t-34.5 92.5q-81 216 -244.5 647t-244.5 647z" />
<glyph unicode="]" horiz-adv-x="432" d="M87.5 -115q11.5 23 39.5 23h131v168v1466h-131q-28 0 -39.5 23t0 46t39.5 23h178q19 0 32 -14t13 -33v-213v-1513q0 -19 -13 -32t-32 -13h-178q-28 0 -39.5 23t0 46z" />
<glyph unicode="^" horiz-adv-x="600" d="M81.5 1596q-0.5 24 20.5 42q22 15 83.5 54t93.5 61q25 14 47 0q28 -19 85.5 -57t86.5 -58q23 -16 21 -42.5t-21.5 -38t-44.5 1.5q-106 69 -150 100q-25 -16 -76 -49.5t-77 -50.5q-24 -16 -46 -1.5t-22.5 38.5z" />
<glyph unicode="_" horiz-adv-x="1337" d="M87.5 23q-11.5 23 0 46t39.5 23h1083q28 0 39.5 -23t0 -46t-39.5 -23h-1083q-28 0 -39.5 23z" />
<glyph unicode="`" horiz-adv-x="346" d="M42.5 1720q4.5 -15 18.5 -24q86 -54 177 -113q15 -9 29 -7.5t23.5 12t14 23t-0.5 27t-19 23.5q-63 42 -176 115q-15 9 -29.5 7.5t-23.5 -12t-13.5 -23.5t0 -28z" />
<glyph unicode="a" horiz-adv-x="1210" d="M2 55q80 216 524 1434q12 33 44.5 33t43.5 -33q32 -90 222 -622t290 -814q9 -26 -9 -42t-44 -11.5t-35 29.5q-16 45 -62 173.5t-71 198.5h-678q-99 -270 -137 -370q-8 -26 -33.5 -30.5t-44 12t-10.5 42.5zM260 494h612q-66 188 -303 849q-55 -153 -159.5 -438 t-149.5 -411z" />
<glyph unicode="b" horiz-adv-x="1173" d="M82 1473q0 19 13 32t32 13q52 0 155 1t154 1q79 0 128 -3.5t113 -22t114 -54.5q99 -72 137 -184q18 -53 18 -108q0 -61 -22 -122q-49 -119 -160 -182q167 -48 256 -178q71 -105 71 -224q1 -28 -3 -57q-20 -152 -136 -256q-88 -78 -192.5 -102.5t-251.5 -24.5 q-63 0 -187.5 1t-185.5 1q-22 0 -31 12q-2 0 -2 2h-2q-12 12 -12 31q0 238 -3 712.5t-3 711.5zM174 1427q0 -222 3 -666.5t3 -666.5h238q21 0 77 -2q42 -1 70 -1q9 1 17 1q31 0 76 5t81 16q101 31 172 107.5t87 172.5q4 22 3 44q0 75 -40 153q-32 57 -79 96t-105 58.5 t-115 27.5t-125 8q-27 0 -38 22.5t0 45.5t38 24q82 2 155 36q74 35 120 102q43 62 42 138v13q-3 79 -51 140.5t-118 92.5t-148 33q0 2 -65 2q-43 0 -116 -1z" />
<glyph unicode="c" horiz-adv-x="1378" d="M82 796q2 105 28.5 207.5t75.5 188.5q85 153 230 246t313 94h8q370 0 549 -270q16 -23 2.5 -44.5t-38 -21.5t-42.5 21q-50 75 -126.5 127.5t-162.5 76.5q-78 22 -162 22q-9 -1 -17 -1q-93 -2 -177 -33q-122 -44 -212.5 -145.5t-134.5 -225t-46 -254.5v-13q0 -124 36 -243 q38 -125 123 -231.5t203 -159.5q86 -39 183 -47q25 -2 49 -2q71 0 139 17q91 22 172 76t133 132q16 23 43 21t38.5 -22t-1.5 -46q-110 -162 -288 -226q-114 -41 -236 -41q-68 0 -139 13q-107 20 -198 73.5t-154.5 130.5t-108.5 171.5t-64 198.5q-18 97 -18 195v15z" />
<glyph unicode="d" horiz-adv-x="1177" d="M82 1470q0 19 13 32.5t32 13.5q44 0 117.5 2.5t127.5 4.5q27 1 59 1q33 0 69 -1q74 -2 130 -8.5t120 -23.5t113.5 -43t96 -68.5t78.5 -99.5q21 -36 34 -76t18 -90q4 -52 6 -82q1 -15 0.5 -38.5t-0.5 -54.5q-2 -63 -2 -83v-422q-5 -128 -76 -228t-181 -152.5t-237 -53.5 q-52 -1 -121 -1q-138 0 -344 3q-19 0 -33 13t-14 32q0 238 -3 711.5t-3 711.5zM174 1425q0 -222 3 -666.5t3 -666.5q26 -1 84 -3q92 -1 190 -5q20 -1 41 -1q79 1 155 15q96 18 172.5 50t125.5 105.5t53 180.5v369q1 25 5 115q3 51 2 92q0 32 -2 60q-4 62 -21 112 q-21 59 -58.5 103t-81.5 70t-101 41.5t-109 21t-113 5.5q-233 0 -348 2z" />
<glyph unicode="e" horiz-adv-x="1161" d="M82 45v1423q0 19 13 32t32 13h909q27 0 38 -22.5t0 -45t-38 -22.5h-862v-442h772q27 0 38 -23t0 -46t-38 -23h-772v-797h862q27 0 38 -23t0 -46t-38 -23h-909q-19 0 -32 13t-13 32z" />
<glyph unicode="f" horiz-adv-x="1161" d="M82 45v1440q0 19 13 33t32 14h909q27 0 38 -23t0 -46t-38 -23h-862v-443h772q27 0 38 -22.5t0 -45t-38 -22.5h-772v-862q0 -28 -23 -39.5t-46 0t-23 39.5z" />
<glyph unicode="g" horiz-adv-x="1398" d="M84 846q9 101 41 200.5t86 182.5q101 154 253 229q142 70 316 70h23q135 -3 250 -61t187.5 -165.5t76.5 -242.5q1 -28 -21.5 -39.5t-46 0t-24.5 39.5q-2 78 -31.5 142.5t-77 108t-111 73t-132.5 41.5q-64 12 -131 12h-11q-126 -2 -230 -55.5t-170.5 -140.5t-107 -199.5 t-47.5 -229.5q-1 -23 -1 -47q0 -94 21 -188q26 -117 83 -211q83 -134 210.5 -203.5t286.5 -69.5q107 1 201 38t161.5 114t82.5 180h-361q-28 0 -39.5 23t0 46t39.5 23h412q19 0 32.5 -13.5t12.5 -31.5q-3 -114 -52.5 -206t-130 -149t-180.5 -87q-97 -29 -202 -29h-7 q-111 1 -209 35.5t-172 94.5t-132 141.5t-92.5 174.5t-49.5 196q-9 65 -9 129q0 38 3 75z" />
<glyph unicode="h" horiz-adv-x="1124" d="M82 43v1407q0 28 23 39.5t46 0t23 -39.5v-420h776v420q0 28 23 39.5t46 0t23 -39.5v-1407q0 -28 -23 -39t-46 0.5t-23 38.5v897h-776v-897q0 -28 -23 -39t-46 0.5t-23 38.5z" />
<glyph unicode="i" horiz-adv-x="499" d="M205 43v1425q0 28 22.5 39.5t45 0t22.5 -39.5v-1425q0 -28 -22.5 -39.5t-45 0t-22.5 39.5z" />
<glyph unicode="j" horiz-adv-x="1181" d="M82 461q-1 28 21.5 39.5t46 0t24.5 -39.5q2 -70 28 -131.5t69 -106.5t100.5 -77.5t120.5 -46.5q50 -11 104 -11h27q68 4 131 27q119 46 186.5 145t67.5 227v332v619h-445q-28 0 -39.5 23t0 46t39.5 23h490q19 0 33 -14t14 -33v-367v-510v-43v-47t-1 -41.5t-3 -46.5 t-6 -41t-9 -46t-13.5 -40t-18.5 -43q-54 -104 -148.5 -168.5t-198.5 -82.5q-47 -8 -94 -8q-60 0 -120 13q-110 22 -198 78.5t-146 153.5t-62 217z" />
<glyph unicode="k" horiz-adv-x="1136" d="M82 43v1425q0 28 23 39.5t46 0t23 -39.5v-684q158 144 463 418.5t338 304.5q20 19 45.5 10.5t31 -30.5t-13.5 -43q-77 -69 -231.5 -209.5t-231.5 -210.5q1 -1 2.5 -3t2.5 -3q77 -159 231 -476.5t231 -475.5q13 -25 -2.5 -47.5t-38 -22.5t-38.5 22q-147 306 -457 943 q-54 -49 -164 -147.5t-164 -147.5l-4 -4v-619q0 -28 -23 -39.5t-46 0t-23 39.5z" />
<glyph unicode="l" horiz-adv-x="1103" d="M82 47v1428q0 27 23 38t46 0t23 -38v-1381h803q28 0 39.5 -23t0 -46t-39.5 -23h-850q-19 0 -32 13t-13 32z" />
<glyph unicode="m" horiz-adv-x="1435" d="M82 41v1432q0 30 28 40.5t50 -8.5q64 -54 176.5 -147.5t205.5 -172t175 -147.5q357 296 559 465q22 20 50 9t28 -42v-1429q0 -28 -23 -39t-46 0.5t-23 38.5v1333q-387 -325 -512 -428q-16 -13 -32 -13l-32 13q-274 228 -512 428v-1333q0 -28 -23 -39t-46 0.5t-23 38.5z " />
<glyph unicode="n" horiz-adv-x="1198" d="M82 45v1448q0 35 33.5 43.5t52.5 -20.5l56 -87.5t63 -95.5q90 -138 344.5 -529t394.5 -605v1294q0 27 22.5 38t45 0t22.5 -38v-1448q0 -35 -33.5 -44t-50.5 19q-23 33 -63 95.5l-56 87.5q-204 312 -739 1136v-1294q0 -28 -23 -39.5t-46 0t-23 39.5z" />
<glyph unicode="o" d="M82 732q-1 21 0 41q0 230 108 421q73 131 192 220q118 88 260 114q47 9 94 9q96 0 196 -36q314 -117 432 -530q0 -1 1 -4t1 -4t1 -4.5t1 -4.5q17 -86 17 -176t-15.5 -177.5t-49 -170.5t-82 -154.5t-117.5 -130t-152 -96.5q-115 -50 -229 -50q-24 1 -47 3 q-137 12 -259 85.5t-205 193.5q-137 197 -147 451zM174 798q-1 -16 0 -32q0 -125 39 -246q44 -136 133 -239q130 -149 314 -181q41 -7 82 -8q140 0 270 86q87 60 150 150t93 190q29 99 37 209q2 28 2 55q0 80 -16 156q-24 87 -60 163t-87.5 144t-123.5 117t-159 70 q-56 14 -112 14q-73 0 -144 -24q-126 -43 -218 -137t-143 -218q-51 -127 -57 -269z" />
<glyph unicode="p" horiz-adv-x="1038" d="M82 1477q0 19 14 32t33 13h418q136 0 235 -29t174 -113q83 -94 92 -233v-29q0 -121 -63 -213q-121 -176 -428 -176h-377h-2q4 -458 4 -686q0 -28 -23 -39.5t-46 0t-23 39.5q0 238 -4 716t-4 718zM174 1430q0 -203 4 -609h2h400q110 0 195.5 36t135.5 115q42 66 42 156 q0 16 -1 33q-7 101 -79 173t-175 91q-26 5 -53 6q-13 1 -31.5 1t-41.5 -1q-45 -1 -54 -1h-344z" />
<glyph unicode="q" horiz-adv-x="1466" d="M87 856q16 154 81 289q91 193 271 303q139 86 291 86q46 0 93 -8q124 -20 230.5 -93t178 -175t111.5 -224q42 -130 42 -265q0 -83 -15 -167q-42 -221 -182 -389q-17 -22 -41.5 -14.5t-32 30.5t7.5 47q132 158 163 370q9 63 9 123q0 146 -53 280q-65 169 -200.5 281 t-307.5 112q-179 0 -319 -123.5t-199 -302.5q-39 -129 -41 -258v-8q0 -125 44 -249q44 -128 128 -225q126 -146 301 -177q43 -8 86 -8q129 0 252 71q-47 22 -91 22q-37 0 -71 -16q-25 -12 -47 4t-21.5 38.5t23.5 37.5q60 29 122 29q44 0 89 -15q23 -8 72 -44t93 -56 q25 -11 47 -11q17 0 32 7q25 12 47.5 -4t22 -38.5t-24.5 -37.5q-28 -13 -55.5 -15.5t-53.5 4.5t-47 16.5t-47 25.5q-140 -98 -301 -109q-20 -1 -40 -1q-139 0 -264 64q-143 73 -241 213q-86 123 -122 274q-25 105 -25 211q0 48 5 95z" />
<glyph unicode="r" horiz-adv-x="1130" d="M82 1479q0 19 13 33t32 14h420q136 0 235 -29t174 -113q82 -96 90 -234q1 -15 1 -29q0 -120 -64 -214q-62 -91 -172 -135q103 -44 166 -125.5t67 -197.5q2 0 2 -114v-88l-2 -202q0 -28 -23 -39.5t-46 0t-23 39.5q0 40 0.5 111.5t0.5 130t-1 110.5q0 64 -9 110t-38 85 q-97 135 -340 139l-4 2q-19 0 -33 13t-14 32t13 32t32 13h4h2h13q82 1 151 22t122 62t81 107q22 53 21 117q0 16 -1 34q-9 100 -81 171.5t-175 90.5q-40 7 -180 7h-342q0 -332 2 -498v-62v-51l2 -221q2 -186 2 -557q0 -28 -23 -39.5t-46 0t-23 39.5q0 240 -3 718t-3 716z " />
<glyph unicode="s" horiz-adv-x="1181" d="M82 465q-1 28 21.5 39.5t46 0t24.5 -39.5q3 -100 55.5 -183.5t137.5 -132.5t184 -57q29 -4 61 -4q26 0 54 2q64 6 121.5 19t109 47t78.5 84q34 63 36 131v8q0 65 -32 119q-34 58 -98 88q-39 18 -89.5 30.5t-86.5 17t-98 11t-89 10.5q-104 15 -179.5 41.5t-131.5 83.5 q-94 102 -107 250q-1 14 -1 29q0 77 27 147q32 84 90.5 147t139.5 105t170 53q33 4 65 4q71 0 143 -20q102 -29 182 -89.5t130 -153.5t54 -201q0 -28 -22.5 -39.5t-45.5 0t-24 39.5q-2 77 -33 143t-80.5 111t-113.5 74q-65 29 -133 37q-29 4 -58 4q-40 0 -80 -6 q-70 -12 -129 -43t-105.5 -87t-68.5 -131q-17 -53 -17 -103q0 -80 43 -153q18 -31 41.5 -54.5t55.5 -40t57.5 -27t68 -18.5t64.5 -11t68 -9h1h1h1h1l1 -1h1h1h1h1h1h1h1l1 -1h1q192 -22 281 -54q187 -68 213 -235q4 -30 4 -59q0 -64 -19 -126q-28 -91 -94 -150 q-109 -100 -336 -111q-17 -1 -34 -1q-125 0 -237 46q-127 52 -210 162.5t-88 257.5z" />
<glyph unicode="t" horiz-adv-x="1288" d="M87.5 1446.5q-11.5 23.5 0 46.5t39.5 23h1034q28 0 39.5 -23t0 -46.5t-39.5 -23.5h-463v-1378q0 -28 -22.5 -39.5t-45 0t-22.5 39.5v1378h-481q-28 0 -39.5 23.5z" />
<glyph unicode="u" horiz-adv-x="1185" d="M82 541v344v583q0 28 23 39.5t46 0t23 -39.5v-602v-305q0 -7 -0.5 -43.5t0 -49t2.5 -40.5t7.5 -48.5t13.5 -41.5q37 -93 112 -153t163 -80q53 -12 107 -12q37 -1 75 5q94 14 171 58.5t128.5 125t54.5 181.5q4 149 4 317t-2 372.5t-2 315.5q0 28 23 39.5t46 0t23 -39.5 v-688q0 -31 1.5 -102.5t1.5 -110t-5 -101.5t-16 -106t-34 -93.5t-57 -90.5q-68 -79 -164 -124q-97 -46 -199 -50q-15 -1 -29 -1q-87 0 -171 23q-98 27 -179.5 94.5t-125.5 164.5q-18 39 -27.5 85.5t-11.5 81.5t-2 91z" />
<glyph unicode="v" horiz-adv-x="1292" d="M86 1468q-9 26 9 43t44 12.5t35 -30.5q78 -219 233.5 -657.5t233.5 -657.5q51 139 219 601t260 712q9 26 35 30.5t44 -12.5t9 -43q-412 -1130 -524 -1433q-10 -32 -43 -32t-45 32l-255 717t-255 718z" />
<glyph unicode="w" horiz-adv-x="1435" d="M82 45v1448q0 28 23 39.5t46 0t23 -39.5v-1350q89 74 260.5 217.5t251.5 210.5q16 13 32 13l32 -13q70 -58 512 -430v1352q0 28 23 39.5t46 0t23 -39.5v-1448q0 -31 -28 -42t-50 9q-93 78 -279.5 233.5t-279.5 233.5q-82 -69 -175 -147.5t-205.5 -172t-176.5 -147.5 q-22 -20 -50 -9t-28 42z" />
<glyph unicode="x" horiz-adv-x="1296" d="M87 22.5q-11 19.5 3 43.5q21 30 64 89t65 89q63 85 188 256t187 256q-82 114 -246 341t-246 341q-16 23 -2.5 44.5t38 22t42.5 -19.5q21 -30 65 -90.5t66 -89.5q46 -63 161 -223t179 -248q79 109 237.5 326t237.5 325q17 22 44 19t37.5 -22.5t-3.5 -43.5q-22 -30 -65 -88 t-64 -88q-62 -84 -184 -253t-184 -253q134 -184 497 -690q17 -22 3.5 -43t-38 -22t-43.5 19q-22 29 -65 89t-64 90q-101 137 -346 479q-22 -30 -481 -658q-17 -22 -44.5 -19.5t-38.5 22z" />
<glyph unicode="y" horiz-adv-x="1296" d="M87 1498.5q14 21.5 39 22t44 -19.5q79 -107 236.5 -320.5t236.5 -320.5q71 95 151.5 201.5t178.5 237t153 202.5q15 20 36 20q10 0 22 -5q29 -11 30 -37q0 -13 -10 -25q-106 -141 -514 -680v-729q0 -28 -22.5 -39.5t-45 0t-22.5 39.5v721q-85 115 -255 344t-255 344 q-17 23 -3 44.5z" />
<glyph unicode="z" horiz-adv-x="1255" d="M88 23.5q-15 23.5 0 46.5q34 45 125 176q138 195 413.5 586.5t413.5 586.5h-880q-28 0 -39.5 23t0 46t39.5 23h968q24 0 39 -24t0 -45q-79 -111 -125 -176q-137 -195 -412.5 -587t-412.5 -587h911q27 0 38 -23t0 -46t-38 -23h-999q-26 0 -41 23.5z" />
<glyph unicode="{" horiz-adv-x="649" d="M87.5 676q-11.5 22 0 43.5t39.5 23.5q26 1 42.5 12.5t23.5 33t8.5 38.5t1.5 45v240q2 164 76.5 297t214.5 211q15 8 29.5 6.5t24 -12t14 -23.5t-0.5 -27t-20 -22q-107 -62 -172.5 -159.5t-71.5 -215.5q-2 -36 -2 -215q0 -51 -1 -73.5t-5 -64.5t-16.5 -70t-32.5 -48 q26 -27 38.5 -75t14.5 -82t2 -97q0 -14 -0.5 -48.5t-0.5 -53.5t1.5 -47t5.5 -51q17 -107 81.5 -193.5t162.5 -142.5q15 -8 20 -22t0.5 -27t-13.5 -24t-24 -13t-30 6q-140 77 -216.5 210t-78.5 296q0 16 3.5 64.5t3.5 84.5t-5 77.5t-24.5 65.5t-53.5 27q-28 3 -39.5 25z" />
<glyph unicode="|" horiz-adv-x="256" d="M82 -43v1477q0 28 23 39.5t46 0t23 -39.5v-1477q0 -28 -23 -39.5t-46 0t-23 39.5z" />
<glyph unicode="}" horiz-adv-x="649" d="M82.5 1589q4.5 13 14 24t24 13t29.5 -6q141 -77 217.5 -210t76.5 -296q0 -17 -3 -64.5t-3 -84.5t5.5 -77.5t25 -65t53.5 -27.5q28 -3 39.5 -25t0 -44t-39.5 -24q-22 -1 -37 -10t-22.5 -19.5t-11.5 -30t-4.5 -32t-0.5 -35.5q-1 -40 -1 -119.5t-1 -119.5q0 -165 -74 -298.5 t-214 -211.5q-21 -12 -37 -5t-25.5 21.5t-6 33.5t21.5 30q106 60 171 157t72 216q3 0 2 107l-2 108q0 5 0.5 27.5t0.5 29.5t1 27.5t2 29.5t3.5 27t5.5 27.5t7 24t9.5 24t12.5 20.5t16 19q-26 27 -40 75t-16 83.5t-2 95.5q0 16 1 61.5t0.5 77t-5.5 61.5q-17 108 -81.5 195 t-162.5 141q-15 8 -20.5 22t-1 27z" />
<glyph unicode="&#xa1;" horiz-adv-x="256" d="M74 -39q2 210 5 629t5 629q1 28 24.5 39.5t46 0t21.5 -39.5q-2 -210 -5 -629t-5 -629q0 -28 -23 -39t-46 0.5t-23 38.5zM85 1391q-14 28 0 54.5t48 24.5q34 2 48 -24.5t0 -54.5t-48 -29q-34 1 -48 29z" />
<glyph unicode="&#xa2;" horiz-adv-x="993" d="M82 565q2 106 40.5 204.5t114.5 176t177 107.5q28 8 80 16v55q0 25 21 35.5t42 0t21 -35.5v-55q99 -8 184 -55t141 -129q15 -20 2 -39.5t-35 -20.5t-39 19q-42 61 -109 98t-144 45v-874q77 6 144 43t109 100q15 20 39.5 18t34.5 -20t-2 -41q-56 -82 -141.5 -129 t-183.5 -53v-33q0 -25 -21 -35.5t-42 0t-21 35.5v35q-60 7 -109 26q-97 38 -168 119.5t-104 181.5t-31 205zM164 565q-2 -88 25 -172.5t86 -155t141 -102.5q34 -13 78 -20v870q-29 -3 -68 -16q-120 -39 -189.5 -154.5t-72.5 -249.5z" />
<glyph unicode="&#xa3;" horiz-adv-x="1230" d="M86.5 796.5q-10.5 22.5 0 45t36.5 22.5h113q-18 73 -19 78q-13 82 -8 158.5t35.5 146.5t77.5 125.5t116.5 93t153.5 50.5q53 10 104 4.5t99.5 -18.5t89.5 -39t74 -57t53 -72t27 -85.5t-4.5 -96t-41.5 -103.5q-16 -21 -38.5 -20.5t-36.5 22t0 45.5q63 118 11.5 210 t-181.5 119q-105 25 -215.5 -14.5t-172.5 -126.5q-34 -48 -50.5 -99.5t-14 -109t10 -102t24.5 -109.5h213q27 0 38 -22.5t0 -45t-38 -22.5h-189q1 -4 4 -13t4 -13q38 -158 44 -314q2 -86 -9 -235q-2 -29 -2 -86q0 -6 1 -11t2 -7t1 -3q9 0 25.5 9t34 21.5t22.5 14.5 q62 36 92 47q32 11 58 13.5t53.5 -7t44.5 -18.5t53 -31q62 -35 120 -43t104 23.5t57 105.5q5 27 28 32t42.5 -12t15.5 -44q-14 -97 -88 -156q-121 -100 -348 33q-29 18 -56 22t-53.5 -5t-47.5 -20.5t-51.5 -30t-51.5 -28.5q-55 -25 -95.5 -3t-50.5 83q-7 53 2.5 153t9.5 130 q0 122 -20 231q-4 25 -10 52t-15 61t-12 49h-139q-26 0 -36.5 22.5z" />
<glyph unicode="&#xa4;" horiz-adv-x="1286" d="M88 649q-17 117 16 231.5t107 204.5q-4 5 -10 11t-13.5 13t-11.5 11l-2 2q-9 10 -57 58q-18 18 -10.5 41t27.5 28.5t40 -10.5q33 -31 94 -92q55 49 115 78q151 76 319 57t299 -125q2 -2 6.5 -5t6.5 -5q16 15 47.5 45.5t46.5 46.5q17 18 39.5 10.5t28.5 -28t-9 -41.5 q-16 -16 -94 -93q99 -117 123.5 -271.5t-33.5 -297.5q-44 -99 -104 -162l108 -108q17 -18 9 -41t-28 -28.5t-40 9.5l-111 111q-152 -127 -358 -127q-199 6 -350 129q-9 -9 -28 -26.5t-28 -26.5q-10 -10 -29.5 -30t-29.5 -30q-18 -18 -40 -10t-27.5 28.5t10.5 41.5 q8 9 17.5 18.5t21.5 21t18 17.5l53 53q-115 121 -139 291zM166 752q-6 -133 57.5 -246t174 -179.5t241.5 -72.5q191 0 331.5 131.5t149.5 321.5q6 131 -57.5 245.5t-175 182t-242.5 69.5q-189 3 -329.5 -130t-149.5 -322z" />
<glyph unicode="&#xa5;" horiz-adv-x="1304" d="M87 1508.5q14 21.5 39 22t44 -19.5q80 -108 238.5 -323t238.5 -322l486 645q23 28 59 15q29 -11 30 -37q0 -13 -10 -25q-82 -109 -245.5 -326t-245.5 -325h258q28 0 39.5 -23t0 -46t-39.5 -23h-285v-268h285q28 0 39.5 -23.5t0 -46.5t-39.5 -23h-285v-315 q0 -28 -22.5 -39.5t-45 0t-22.5 39.5v315h-278q-28 0 -39.5 23t0 46.5t39.5 23.5h278v268h-278q-28 0 -39.5 23t0 46t39.5 23h245q-400 543 -481 651q-17 23 -3 44.5z" />
<glyph unicode="&#xa6;" horiz-adv-x="256" d="M82 274v232q0 28 23 39.5t46 0t23 -39.5v-232q0 -28 -23 -39.5t-46 0t-23 39.5zM82 997v232q0 28 23 39.5t46 0t23 -39.5v-232q0 -28 -23 -39.5t-46 0t-23 39.5z" />
<glyph unicode="&#xa7;" horiz-adv-x="1280" d="M82 133q-1 30 23.5 42t50 0t26.5 -42q3 -92 44.5 -171t106 -130.5t148 -80.5t167.5 -29t167.5 32t145.5 96q56 56 90.5 137.5t23.5 151.5q-6 39 -27 63.5t-54.5 34.5t-63.5 12.5t-70 0.5q-121 -6 -220 0t-214 38.5t-197 94.5q-123 92 -143.5 247t74.5 277q38 49 102 90 q-44 15 -78 45q-55 47 -73 121t-6.5 144t42.5 137q42 90 110 155t148 97.5t170 41t176.5 -8.5t166 -59t140 -103t98 -147t40.5 -185q1 -31 -23.5 -44t-50 0t-26.5 44q-3 98 -48.5 180.5t-119 134t-161.5 77t-183.5 15t-177.5 -56.5q-66 -38 -125.5 -116.5t-82 -168.5 t32.5 -163q26 -34 73 -49.5t93 -14t95 1.5h6h12h18q176 -7 287 -31q69 -15 128 -40t111.5 -62.5t88 -93t47.5 -123.5q21 -123 -18.5 -228t-129.5 -173q76 -36 110 -110.5t15 -170.5q-23 -133 -112 -234.5t-214 -149t-259 -34.5q-205 19 -349.5 162t-150.5 346zM187.5 743.5 q-31.5 -94.5 29.5 -204.5q34 -56 90.5 -94.5t115.5 -57t137 -27t137.5 -9.5t135.5 0q31 1 46 1q126 40 185 149t21 238q-44 147 -274 205q-111 27 -313 31q-102 -8 -190.5 -72.5t-120 -159z" />
<glyph unicode="&#xa8;" horiz-adv-x="1228" d="M401 1641.5q0 24.5 16.5 44.5t45.5 20q40 0 56 -32t0 -64.5t-56 -32.5q-29 0 -45.5 20t-16.5 44.5zM692 1609.5q-16 32.5 0 64.5t56 32q29 0 45.5 -20t16.5 -44.5t-16.5 -44.5t-45.5 -20q-40 0 -56 32.5z" />
<glyph unicode="&#xa9;" horiz-adv-x="1734" d="M92 520q-41 248 70.5 478t333.5 348q213 112 452.5 85t425.5 -180q193 -161 255 -409.5t-32 -481.5q-90 -222 -292.5 -355.5t-442.5 -133.5q-185 7 -349 89.5t-277 229.5t-144 330zM203 440q70 -211 252.5 -341t406.5 -138q160 0 303.5 67.5t244 190.5t136.5 279 q51 215 -36 421t-275 322q-178 109 -390.5 104t-383.5 -126q-183 -129 -255 -347t-3 -432zM410 653q0 105 34.5 202.5t106 176.5t168.5 115q141 54 288.5 9t233.5 -169q16 -22 2 -43t-38 -22t-42 20q-70 102 -199 134t-241 -23q-106 -52 -164.5 -163.5t-58.5 -236.5 q0 -83 25 -162t79 -146t129 -101q110 -52 236.5 -20t193.5 132q16 22 42.5 19.5t37.5 -21.5t-2 -43q-86 -125 -234 -168.5t-288 11.5q-97 37 -168.5 117t-106 178.5t-34.5 203.5z" />
<glyph unicode="&#xab;" horiz-adv-x="665" d="M86 750q-11 27 2 47q21 27 72 99.5t71 100.5q16 23 43.5 20t38 -23t-3.5 -44q-87 -129 -127 -180q16 -26 65 -102.5t64 -102.5q15 -24 -0.5 -45t-39.5 -20.5t-42 22.5q-19 30 -72 114.5t-71 113.5zM352 750q-11 27 2 47q20 28 71.5 100.5t72.5 99.5q16 23 43 20t37.5 -23 t-3.5 -44q-93 -138 -126 -180q15 -26 64 -102.5t65 -102.5q15 -24 -0.5 -45t-39.5 -20.5t-42 22.5q-19 30 -72 114t-72 114z" />
<glyph unicode="&#xad;" horiz-adv-x="907" d="M87.5 764.5q-11.5 23.5 0 46.5t39.5 23h653q28 0 39.5 -23t0 -46.5t-39.5 -23.5h-653q-28 0 -39.5 23.5z" />
<glyph unicode="&#xae;" horiz-adv-x="1736" d="M92 532q-41 248 70.5 478t333.5 348q213 112 453 85.5t425 -179.5q128 -106 201 -257.5t78 -312.5t-56 -321q-90 -222 -291.5 -355t-441.5 -133q-186 6 -350.5 88t-277.5 229t-144 330zM205 453q68 -211 250.5 -341.5t408.5 -138.5q243 0 435 150t249 387 q51 215 -36.5 421t-276.5 322q-177 110 -390.5 105t-383.5 -127q-183 -129 -254.5 -346.5t-1.5 -431.5zM569 1126q0 19 13 32t30 13q26 0 85.5 1.5t97 2t96 -3t97 -12.5t83.5 -27.5t71.5 -46t46 -71t21.5 -99.5q5 -173 -133 -235q122 -66 133 -197q3 -39 3 -83.5t-1.5 -99.5 t-1.5 -85q0 -27 -22 -38t-44 0t-22 38v219q-1 101 -63.5 150.5t-169.5 52.5h-8q-80 -4 -222 0q3 -211 3 -422q0 -27 -22 -38t-44.5 0t-22.5 38q0 153 -2 456.5t-2 454.5zM657 1083q0 -61 1 -180t1 -178q20 0 94 -2.5t117 -1.5q4 4 19 4h20q47 4 84 15t68 32t46.5 57.5 t12.5 85.5q-2 45 -21.5 78.5t-54.5 51.5t-73 28.5t-90.5 12.5t-91.5 1.5t-90 -2.5q-29 -2 -42 -2z" />
<glyph unicode="&#xaf;" horiz-adv-x="1228" d="M308.5 1612q-11.5 23 0 46t39.5 23h529q28 0 39.5 -23t0 -46t-39.5 -23h-529q-28 0 -39.5 23z" />
<glyph unicode="&#xb0;" horiz-adv-x="552" d="M82 1294v9v8q2 81 43.5 138t120.5 67q86 12 153.5 -40t71.5 -139q3 -79 -39 -138.5t-119 -72.5q-86 -15 -154 34t-77 134zM174 1303q3 -55 57.5 -78.5t100.5 4.5q54 30 47 108q-6 54 -54 78t-96 2q-35 -17 -45 -43.5t-10 -70.5z" />
<glyph unicode="&#xb4;" horiz-adv-x="348" d="M41.5 1606q-0.5 24 21.5 43q20 13 81.5 52.5t95.5 61.5q23 15 44.5 0t22 -38.5t-21.5 -41.5q-64 -43 -176 -114q-23 -16 -45 -1.5t-22.5 38.5z" />
<glyph unicode="&#xb6;" horiz-adv-x="1189" d="M82.5 1045q8.5 139 91.5 233q73 86 172 114.5t236 28.5q71 0 122.5 -1t120.5 -1q19 0 32 -13t13 -32q0 -238 -3 -716.5t-3 -716.5q0 -28 -23 -39.5t-46 0t-23 39.5q0 228 4 686h-2h-201q-307 0 -428 176q-71 103 -62.5 242zM176 1061q-7 -85 20.5 -151t80.5 -107 t122.5 -62t151.5 -22h223h2q2 203 2 610h-166q-12 0 -43.5 0.5t-48.5 0.5t-42.5 -1.5t-45.5 -5.5q-103 -19 -175 -90.5t-81 -171.5zM1016 -59v1435q0 28 23 39.5t46 0t23 -39.5v-1435q0 -28 -23 -39.5t-46 0t-23 39.5z" />
<glyph unicode="&#xb7;" horiz-adv-x="526" d="M163 866.5q0 38.5 27 70.5t74 32q46 0 72.5 -32t26.5 -70.5t-26.5 -70.5t-72.5 -32q-47 0 -74 32t-27 70.5z" />
<glyph unicode="&#xb8;" horiz-adv-x="1228" d="M406.5 -227.5q11.5 23.5 39.5 24.5q34 1 58 14t37 30.5t20 47.5t9 53t3 58q0 28 23.5 39.5t46.5 0t23 -39.5q-1 -47 -3 -72.5t-11.5 -64.5t-26.5 -66q-50 -89 -179 -92q-28 -1 -39.5 21.5t0 46z" />
<glyph unicode="&#xbb;" horiz-adv-x="665" d="M86.5 536q-10.5 20 3.5 44q88 130 127 178q-17 30 -66 106.5t-63 100.5q-15 24 0.5 45t39.5 20.5t42 -22.5q36 -60 143 -230q11 -27 -2 -47q-17 -23 -69 -96.5t-74 -102.5q-16 -23 -43.5 -19.5t-38 23.5zM352.5 534q-10.5 20 3.5 44q87 129 127 180q-16 26 -64.5 102.5 t-64.5 102.5q-15 24 0.5 45t39.5 20.5t42 -22.5q19 -30 72 -114t72 -114q11 -27 -2 -47q-20 -27 -71.5 -100.5t-72.5 -100.5q-16 -23 -43.5 -19.5t-38 23.5z" />
<glyph unicode="&#xbf;" horiz-adv-x="1167" d="M87 330q-11 102 28 198q55 123 161 189q22 15 78 44t84 50q140 105 148 238q1 29 -4 168q0 28 23 37.5t46 -3t23 -39.5q3 -59 0.5 -116.5t-12 -107t-35.5 -100t-70 -95.5q-36 -36 -94.5 -74t-104.5 -63.5t-91.5 -70.5t-67.5 -100q-55 -132 17.5 -265t209.5 -185 q75 -25 152 -27t150 25.5t130.5 72t95 114t43.5 149.5q2 28 26 38.5t46.5 -2t20.5 -40.5q-12 -171 -133.5 -294.5t-294.5 -148.5q-150 -21 -288 36.5t-218 180.5q-58 89 -69 191zM580 1364.5q-12 27.5 2 53t45 22.5q32 -1 44.5 -27.5t-2 -52.5t-46.5 -25q-31 2 -43 29.5z " />
<glyph unicode="&#xc0;" horiz-adv-x="1292" d="M84 55q80 216 524 1434q12 33 44.5 33t43.5 -33q32 -90 222 -622t290 -814q9 -26 -9 -42t-44 -11.5t-35 29.5q-16 45 -62 173.5t-71 198.5h-678q-99 -270 -137 -370q-8 -26 -33.5 -30.5t-44.5 12t-10 42.5zM342 494h612q-66 188 -303 849q-55 -153 -159.5 -438 t-149.5 -411zM415.5 1739q-0.5 -24 20.5 -43q57 -35 176 -113q15 -9 29 -7.5t23.5 12t14 23t-0.5 27t-19 23.5q-63 42 -176 115q-24 16 -45.5 1.5t-22 -38.5z" />
<glyph unicode="&#xc1;" horiz-adv-x="1292" d="M84 55q80 216 524 1434q12 33 44.5 33t43.5 -33q32 -90 222 -622t290 -814q9 -26 -9 -42t-44 -11.5t-35 29.5q-16 45 -62 173.5t-71 198.5h-678q-99 -270 -137 -370q-8 -26 -33.5 -30.5t-44.5 12t-10 42.5zM342 494h612q-66 188 -303 849q-55 -153 -159.5 -438 t-149.5 -411zM609.5 1669q-0.5 24 21.5 43q113 73 176 115q23 15 44.5 0t22 -38.5t-21.5 -41.5q-81 -55 -176 -115q-23 -16 -44.5 -1.5t-22 38.5z" />
<glyph unicode="&#xc2;" horiz-adv-x="1210" d="M2 55q80 216 524 1434q12 33 44.5 33t43.5 -33q32 -90 222 -622t290 -814q9 -26 -9 -42t-44 -11.5t-35 29.5q-16 45 -62 173.5t-71 198.5h-678q-99 -270 -137 -370q-8 -26 -33.5 -30.5t-44 12t-10.5 42.5zM260 494h612q-66 188 -303 849q-55 -153 -159.5 -438 t-149.5 -411zM350.5 1591q-0.5 24 20.5 43q20 13 81.5 53t94.5 62q25 14 47 0q29 -19 86.5 -57.5t85.5 -57.5q23 -16 21 -43t-21.5 -38.5t-44.5 1.5q-91 59 -150 101q-26 -17 -77 -51t-76 -50q-24 -16 -45.5 -1.5t-22 38.5z" />
<glyph unicode="&#xc3;" horiz-adv-x="1292" d="M84 55q80 216 524 1434q12 33 44.5 33t43.5 -33q32 -90 222 -622t290 -814q9 -26 -9 -42t-44 -11.5t-35 29.5q-16 45 -62 173.5t-71 198.5h-678q-99 -270 -137 -370q-8 -26 -33.5 -30.5t-44.5 12t-10 42.5zM342 494h612q-66 188 -303 849q-55 -153 -159.5 -438 t-149.5 -411zM420 1671q23 54 70 79.5t100 6.5q10 -4 36 -21t50.5 -30.5t50 -22.5t42 3t19.5 47q3 28 27.5 39.5t46.5 0t19 -39.5q-5 -59 -39.5 -99t-91.5 -47q-46 -6 -91 19q-11 6 -32 22.5t-35.5 25t-32.5 14t-32.5 -5.5t-26.5 -38q-14 -23 -36 -23.5t-38.5 22t-5.5 48.5z " />
<glyph unicode="&#xc4;" horiz-adv-x="1210" d="M2 55q80 216 524 1434q12 33 44.5 33t43.5 -33q32 -90 222 -622t290 -814q9 -26 -9 -42t-44 -11.5t-35 29.5q-16 45 -62 173.5t-71 198.5h-678q-99 -270 -137 -370q-8 -26 -33.5 -30.5t-44 12t-10.5 42.5zM260 494h612q-66 188 -303 849q-55 -153 -159.5 -438 t-149.5 -411zM384 1637.5q0 24.5 16.5 44.5t45.5 20q40 0 56 -32t0 -64.5t-56 -32.5q-29 0 -45.5 20t-16.5 44.5zM675 1605.5q-16 32.5 0 64.5t56 32q29 0 45.5 -20t16.5 -44.5t-16.5 -44.5t-45.5 -20q-40 0 -56 32.5z" />
<glyph unicode="&#xc5;" horiz-adv-x="1210" d="M2 55q80 216 524 1434q12 33 44.5 33t43.5 -33q32 -90 222 -622t290 -814q9 -26 -9 -42t-44 -11.5t-35 29.5q-16 45 -62 173.5t-71 198.5h-678q-99 -270 -137 -370q-8 -26 -33.5 -30.5t-44 12t-10.5 42.5zM260 494h612q-66 188 -303 849q-55 -153 -159.5 -438 t-149.5 -411zM377 1610v8v8q2 81 43.5 138t120.5 67q86 12 153.5 -39.5t71.5 -138.5q3 -79 -39 -138.5t-119 -72.5q-86 -15 -154 34t-77 134zM469 1618q3 -55 57.5 -78.5t100.5 4.5q54 30 47 109q-6 54 -54 78t-96 2q-35 -17 -45 -44t-10 -71z" />
<glyph unicode="&#xc6;" horiz-adv-x="2199" d="M84 55q80 216 524 1434q12 33 44.5 33t43.5 -33q32 -90 222 -622t290 -814q9 -26 -9 -42t-44 -11.5t-35 29.5q-16 45 -62 173.5t-71 198.5h-678q-99 -270 -137 -370q-8 -26 -33.5 -30.5t-44.5 12t-10 42.5zM342 494h612q-66 188 -303 849q-55 -153 -159.5 -438 t-149.5 -411zM1120 43v1423q0 19 13 32t32 13h910q27 0 38 -22.5t0 -45t-38 -22.5h-863v-442h773q27 0 38 -23t0 -46t-38 -23h-773v-797h863q27 0 38 -23t0 -46t-38 -23h-910q-19 0 -32 13t-13 32z" />
<glyph unicode="&#xc7;" horiz-adv-x="1378" d="M82.5 721q-5.5 122 20.5 244t83 223q87 152 231.5 244.5t313.5 93.5q374 3 557 -269q16 -23 1.5 -45t-38.5 -22.5t-43 20.5q-50 74 -126.5 127t-162.5 77.5t-179 22.5t-177 -32q-121 -45 -211 -146.5t-134 -225t-46 -255.5q-2 -131 36 -256t122 -231.5t202 -159.5 q86 -39 183.5 -46.5t188 14.5t171.5 76t133 132q16 23 43 21t38.5 -21.5t-1.5 -44.5q-81 -122 -203.5 -189.5t-265.5 -76.5q-4 -104 -39 -164q-50 -89 -178 -92q-28 -1 -39.5 21.5t0 46t39.5 24.5q68 1 94.5 45t30.5 117q-51 3 -100 12q-125 23 -227.5 92t-168 165.5 t-104.5 216t-44.5 241.5z" />
<glyph unicode="&#xc8;" horiz-adv-x="1161" d="M82 45v1423q0 19 13 32t32 13h909q27 0 38 -22.5t0 -45t-38 -22.5h-862v-442h772q27 0 38 -23t0 -46t-38 -23h-772v-797h862q27 0 38 -23t0 -46t-38 -23h-909q-19 0 -32 13t-13 32zM432.5 1771q-0.5 -24 20.5 -42q57 -36 176 -113q15 -9 29 -7.5t23.5 12t14 23t-0.5 27 t-19 23.5q-35 23 -100 65t-76 49q-24 16 -45.5 1.5t-22 -38.5z" />
<glyph unicode="&#xc9;" horiz-adv-x="1161" d="M82 45v1423q0 19 13 32t32 13h909q27 0 38 -22.5t0 -45t-38 -22.5h-862v-442h772q27 0 38 -23t0 -46t-38 -23h-772v-797h862q27 0 38 -23t0 -46t-38 -23h-909q-19 0 -32 13t-13 32zM560.5 1669q-0.5 24 21.5 43q113 73 176 115q23 15 44.5 0t22 -38.5t-21.5 -41.5 q-81 -55 -176 -115q-23 -16 -44.5 -1.5t-22 38.5z" />
<glyph unicode="&#xca;" horiz-adv-x="1161" d="M82 45v1423q0 19 13 32t32 13h909q27 0 38 -22.5t0 -45t-38 -22.5h-862v-442h772q27 0 38 -23t0 -46t-38 -23h-772v-797h862q27 0 38 -23t0 -46t-38 -23h-909q-19 0 -32 13t-13 32zM372.5 1645q-0.5 24 20.5 43q23 15 83.5 53.5t92.5 60.5q25 14 47 0q28 -19 85.5 -56.5 t86.5 -57.5q23 -16 21 -43t-21.5 -38.5t-44.5 1.5q-96 62 -149 100q-26 -16 -77.5 -49.5t-76.5 -50.5q-24 -16 -45.5 -1.5t-22 38.5z" />
<glyph unicode="&#xcb;" horiz-adv-x="1161" d="M82 45v1423q0 19 13 32t32 13h909q27 0 38 -22.5t0 -45t-38 -22.5h-862v-442h772q27 0 38 -23t0 -46t-38 -23h-772v-797h862q27 0 38 -23t0 -46t-38 -23h-909q-19 0 -32 13t-13 32zM384 1686.5q0 24.5 16.5 44.5t45.5 20q40 0 56 -32.5t0 -64.5t-56 -32q-29 0 -45.5 20 t-16.5 44.5zM675 1654q-16 32 0 64.5t56 32.5q29 0 45.5 -20t16.5 -44.5t-16.5 -44.5t-45.5 -20q-40 0 -56 32z" />
<glyph unicode="&#xcc;" horiz-adv-x="253" d="M-94.5 1786q-0.5 -24 20.5 -43q57 -36 176 -113q15 -9 29.5 -7.5t23.5 12t13.5 23t0 27t-18.5 23.5q-9 6 -177 115q-24 16 -45.5 1.5t-22 -38.5zM82 43v1425q0 28 22.5 39.5t45 0t22.5 -39.5v-1425q0 -28 -22.5 -39.5t-45 0t-22.5 39.5z" />
<glyph unicode="&#xcd;" horiz-adv-x="417" d="M164 43v1425q0 28 22.5 39.5t45 0t22.5 -39.5v-1425q0 -28 -22.5 -39.5t-45 0t-22.5 39.5zM179.5 1669q-0.5 24 21.5 43q113 73 176 115q23 15 44.5 0t22 -38.5t-21.5 -41.5q-81 -55 -176 -115q-23 -16 -44.5 -1.5t-22 38.5z" />
<glyph unicode="&#xce;" horiz-adv-x="499" d="M38.5 1641q-0.5 24 20.5 42q22 15 83.5 54t93.5 61q25 14 47 0q28 -19 85.5 -57t86.5 -58q23 -16 21 -42.5t-21.5 -38t-44.5 1.5q-106 69 -150 100q-26 -17 -77 -50.5t-77 -49.5q-24 -16 -45.5 -1.5t-22 38.5zM205 43v1425q0 28 22.5 39.5t45 0t22.5 -39.5v-1425 q0 -28 -22.5 -39.5t-45 0t-22.5 39.5z" />
<glyph unicode="&#xcf;" horiz-adv-x="499" d="M47 1675.5q0 23.5 16.5 43.5t45.5 20t45.5 -20t16.5 -43.5t-16.5 -43.5t-45.5 -20t-45.5 20t-16.5 43.5zM205 43v1425q0 28 22.5 39.5t45 0t22.5 -39.5v-1425q0 -28 -22.5 -39.5t-45 0t-22.5 39.5zM329 1675.5q0 23.5 16.5 43.5t45.5 20q40 0 56 -31.5t0 -63.5t-56 -32 q-29 0 -45.5 20t-16.5 43.5z" />
<glyph unicode="&#xd0;" horiz-adv-x="1177" d="M-8.5 764.5q-11.5 23.5 0 46.5t39.5 23h653q28 0 39.5 -23t0 -46.5t-39.5 -23.5h-653q-28 0 -39.5 23.5zM82 1470q0 19 13 32.5t32 13.5q44 0 117.5 2.5t127.5 4.5t127.5 0t130 -8.5t120.5 -23.5t113.5 -43t96 -68.5t78.5 -99.5q21 -36 34 -76t17.5 -90.5t6 -81t0 -93.5 t-1.5 -83v-422q-5 -128 -76 -228t-181 -152.5t-237 -53.5q-157 -2 -465 2q-19 0 -33 13t-14 32q0 238 -3 711.5t-3 711.5zM174 1425q0 -222 3 -666.5t3 -666.5q26 -1 84 -3q92 0 190.5 -4.5t195 13t173 50t125.5 106t53 180.5v369q0 25 4.5 115t1 151.5t-21.5 112.5 q-21 59 -58.5 103t-81.5 70t-101 41.5t-109 21t-113 5.5q-233 0 -348 2z" />
<glyph unicode="&#xd1;" horiz-adv-x="1198" d="M82 45v1448q0 35 33.5 43.5t52.5 -20.5l56 -87.5t63 -95.5q90 -138 344.5 -529t394.5 -605v1294q0 27 22.5 38t45 0t22.5 -38v-1448q0 -35 -33.5 -44t-50.5 19q-23 33 -63 95.5l-56 87.5q-204 312 -739 1136v-1294q0 -28 -23 -39.5t-46 0t-23 39.5zM397 1671 q23 54 70 79.5t100 6.5q10 -4 36.5 -21t51 -30.5t49.5 -22.5t42 3t20 47q3 28 27 39.5t46 0t19 -39.5q-5 -59 -39.5 -99t-91.5 -47q-46 -6 -90 19q-11 6 -32.5 22.5t-36 25t-32.5 14t-32.5 -5.5t-26.5 -38q-14 -23 -36 -23.5t-38.5 22t-5.5 48.5z" />
<glyph unicode="&#xd2;" d="M82.5 731.5q-10.5 254.5 107.5 462.5q73 131 192 219.5t260.5 115t289.5 -27.5q314 -117 432 -530q0 -1 1 -4t1 -4t1 -4.5t1 -4.5q17 -86 17 -176t-15.5 -177.5t-49 -170.5t-82 -154.5t-117.5 -130t-152 -96.5q-139 -60 -276 -47.5t-259 86t-205 193.5 q-136 196 -146.5 450.5zM174.5 797.5q-5.5 -141.5 38.5 -277.5t133 -239q130 -150 314.5 -181.5t351.5 78.5q87 60 150 150t93 189.5t37.5 209.5t-14.5 211q-24 87 -60 163t-87.5 144t-123.5 117t-159 70q-130 33 -256 -10t-218 -137t-143 -218q-51 -128 -56.5 -269.5z M489.5 1780q-0.5 -24 20.5 -43q57 -35 176 -113q15 -9 29 -7.5t23.5 12t14 23t-0.5 27t-19 23.5q-63 42 -176 115q-24 16 -45.5 1.5t-22 -38.5z" />
<glyph unicode="&#xd3;" d="M82.5 731.5q-10.5 254.5 107.5 462.5q73 131 192 219.5t260.5 115t289.5 -27.5q314 -117 432 -530q0 -1 1 -4t1 -4t1 -4.5t1 -4.5q17 -86 17 -176t-15.5 -177.5t-49 -170.5t-82 -154.5t-117.5 -130t-152 -96.5q-139 -60 -276 -47.5t-259 86t-205 193.5 q-136 196 -146.5 450.5zM174.5 797.5q-5.5 -141.5 38.5 -277.5t133 -239q130 -150 314.5 -181.5t351.5 78.5q87 60 150 150t93 189.5t37.5 209.5t-14.5 211q-24 87 -60 163t-87.5 144t-123.5 117t-159 70q-130 33 -256 -10t-218 -137t-143 -218q-51 -128 -56.5 -269.5z M660.5 1669q-0.5 24 21.5 43q113 73 176 115q23 15 44.5 0t22 -38.5t-21.5 -41.5q-81 -55 -176 -115q-23 -16 -44.5 -1.5t-22 38.5z" />
<glyph unicode="&#xd4;" d="M82.5 731.5q-10.5 254.5 107.5 462.5q73 131 192 219.5t260.5 115t289.5 -27.5q314 -117 432 -530q0 -1 1 -4t1 -4t1 -4.5t1 -4.5q17 -86 17 -176t-15.5 -177.5t-49 -170.5t-82 -154.5t-117.5 -130t-152 -96.5q-139 -60 -276 -47.5t-259 86t-205 193.5 q-136 196 -146.5 450.5zM174.5 797.5q-5.5 -141.5 38.5 -277.5t133 -239q130 -150 314.5 -181.5t351.5 78.5q87 60 150 150t93 189.5t37.5 209.5t-14.5 211q-24 87 -60 163t-87.5 144t-123.5 117t-159 70q-130 33 -256 -10t-218 -137t-143 -218q-51 -128 -56.5 -269.5z M526.5 1634q-0.5 24 20.5 43q20 13 81.5 53t94.5 62q25 14 47 0q28 -19 86 -57.5t86 -57.5q23 -16 21 -43t-21.5 -38.5t-44.5 1.5q-81 52 -149 101q-25 -17 -77 -51t-77 -50q-24 -16 -45.5 -1.5t-22 38.5z" />
<glyph unicode="&#xd5;" d="M82.5 731.5q-10.5 254.5 107.5 462.5q73 131 192 219.5t260.5 115t289.5 -27.5q314 -117 432 -530q0 -1 1 -4t1 -4t1 -4.5t1 -4.5q17 -86 17 -176t-15.5 -177.5t-49 -170.5t-82 -154.5t-117.5 -130t-152 -96.5q-139 -60 -276 -47.5t-259 86t-205 193.5 q-136 196 -146.5 450.5zM174.5 797.5q-5.5 -141.5 38.5 -277.5t133 -239q130 -150 314.5 -181.5t351.5 78.5q87 60 150 150t93 189.5t37.5 209.5t-14.5 211q-24 87 -60 163t-87.5 144t-123.5 117t-159 70q-130 33 -256 -10t-218 -137t-143 -218q-51 -128 -56.5 -269.5z M518 1671q23 54 70 79.5t100 6.5q10 -4 36.5 -21t51 -30.5t49.5 -22.5t42 3t20 47q3 28 27 39.5t46 0t19 -39.5q-5 -59 -39.5 -99t-91.5 -47q-46 -6 -90 19q-11 6 -32.5 22.5t-36 25t-32.5 14t-32.5 -5.5t-26.5 -38q-14 -23 -36 -23.5t-38.5 22t-5.5 48.5z" />
<glyph unicode="&#xd6;" d="M82.5 731.5q-10.5 254.5 107.5 462.5q73 131 192 219.5t260.5 115t289.5 -27.5q314 -117 432 -530q0 -1 1 -4t1 -4t1 -4.5t1 -4.5q17 -86 17 -176t-15.5 -177.5t-49 -170.5t-82 -154.5t-117.5 -130t-152 -96.5q-139 -60 -276 -47.5t-259 86t-205 193.5 q-136 196 -146.5 450.5zM174.5 797.5q-5.5 -141.5 38.5 -277.5t133 -239q130 -150 314.5 -181.5t351.5 78.5q87 60 150 150t93 189.5t37.5 209.5t-14.5 211q-24 87 -60 163t-87.5 144t-123.5 117t-159 70q-130 33 -256 -10t-218 -137t-143 -218q-51 -128 -56.5 -269.5z M546 1682.5q0 24.5 16.5 44.5t45.5 20q40 0 56 -32.5t0 -64.5t-56 -32q-29 0 -45.5 20t-16.5 44.5zM837 1650q-16 32 0 64.5t56 32.5q29 0 45.5 -20t16.5 -44.5t-16.5 -44.5t-45.5 -20q-40 0 -56 32z" />
<glyph unicode="&#xd8;" d="M82.5 731.5q-10.5 254.5 107.5 462.5q73 131 192 219.5t260.5 115t289.5 -27.5q314 -117 432 -530q0 -1 1 -4t1 -4t1 -4.5t1 -4.5q17 -86 17 -176t-15.5 -177.5t-49 -170.5t-82 -154.5t-117.5 -130t-152 -96.5q-139 -60 -276 -47.5t-259 86t-205 193.5 q-136 196 -146.5 450.5zM174.5 797.5q-5.5 -141.5 38.5 -277.5t133 -239q130 -150 314.5 -181.5t351.5 78.5q87 60 150 150t93 189.5t37.5 209.5t-14.5 211q-24 87 -60 163t-87.5 144t-123.5 117t-159 70q-130 33 -256 -10t-218 -137t-143 -218q-51 -128 -56.5 -269.5z M408 39q13 34 36 98.5t31 87.5q79 217 236.5 650.5t236.5 650.5q9 26 35 31t44 -12t9 -44q-11 -30 -33 -91.5t-34 -92.5q-79 -217 -235.5 -651.5t-235.5 -651.5q-9 -26 -35.5 -30.5t-45 12.5t-9.5 43z" />
<glyph unicode="&#xd9;" horiz-adv-x="1185" d="M82 541v344v583q0 28 23 39.5t46 0t23 -39.5v-602v-305q0 -7 -0.5 -43.5t0 -49t2.5 -40.5t7.5 -48.5t13.5 -41.5q37 -93 112 -153t163 -80t182 -6.5t171 58t128.5 125t54.5 181.5q4 149 4 317t-2 372.5t-2 315.5q0 28 23 39.5t46 0t23 -39.5v-688q0 -31 1.5 -102.5 t1.5 -110t-5 -101.5t-16 -106t-34 -93.5t-57 -90.5q-68 -79 -164 -124.5t-198.5 -50t-200.5 22.5t-179.5 94.5t-125.5 164.5q-18 39 -27.5 85.5t-11.5 81.5t-2 91zM405.5 1751q-0.5 -24 20.5 -43q57 -35 176 -113q15 -9 29 -7.5t23.5 12t14 23t-0.5 27t-19 23.5 q-63 42 -176 115q-24 16 -45.5 1.5t-22 -38.5z" />
<glyph unicode="&#xda;" horiz-adv-x="1185" d="M82 541v344v583q0 28 23 39.5t46 0t23 -39.5v-602v-305q0 -7 -0.5 -43.5t0 -49t2.5 -40.5t7.5 -48.5t13.5 -41.5q37 -93 112 -153t163 -80t182 -6.5t171 58t128.5 125t54.5 181.5q4 149 4 317t-2 372.5t-2 315.5q0 28 23 39.5t46 0t23 -39.5v-688q0 -31 1.5 -102.5 t1.5 -110t-5 -101.5t-16 -106t-34 -93.5t-57 -90.5q-68 -79 -164 -124.5t-198.5 -50t-200.5 22.5t-179.5 94.5t-125.5 164.5q-18 39 -27.5 85.5t-11.5 81.5t-2 91zM543.5 1669q-0.5 24 21.5 43q113 73 176 115q23 15 44.5 0t22 -38.5t-21.5 -41.5q-81 -55 -176 -115 q-23 -16 -44.5 -1.5t-22 38.5z" />
<glyph unicode="&#xdb;" horiz-adv-x="1185" d="M82 541v344v583q0 28 23 39.5t46 0t23 -39.5v-602v-305q0 -7 -0.5 -43.5t0 -49t2.5 -40.5t7.5 -48.5t13.5 -41.5q37 -93 112 -153t163 -80t182 -6.5t171 58t128.5 125t54.5 181.5q4 149 4 317t-2 372.5t-2 315.5q0 28 23 39.5t46 0t23 -39.5v-688q0 -31 1.5 -102.5 t1.5 -110t-5 -101.5t-16 -106t-34 -93.5t-57 -90.5q-68 -79 -164 -124.5t-198.5 -50t-200.5 22.5t-179.5 94.5t-125.5 164.5q-18 39 -27.5 85.5t-11.5 81.5t-2 91zM385.5 1591q-0.5 24 20.5 43q20 13 81.5 53t94.5 62q25 14 47 0q29 -19 86.5 -57.5t85.5 -57.5 q23 -16 21 -43t-21.5 -38.5t-44.5 1.5q-91 59 -150 101q-25 -17 -76 -51t-77 -50q-24 -16 -45.5 -1.5t-22 38.5z" />
<glyph unicode="&#xdc;" horiz-adv-x="1185" d="M82 541v344v583q0 28 23 39.5t46 0t23 -39.5v-602v-305q0 -7 -0.5 -43.5t0 -49t2.5 -40.5t7.5 -48.5t13.5 -41.5q37 -93 112 -153t163 -80t182 -6.5t171 58t128.5 125t54.5 181.5q4 149 4 317t-2 372.5t-2 315.5q0 28 23 39.5t46 0t23 -39.5v-688q0 -31 1.5 -102.5 t1.5 -110t-5 -101.5t-16 -106t-34 -93.5t-57 -90.5q-68 -79 -164 -124.5t-198.5 -50t-200.5 22.5t-179.5 94.5t-125.5 164.5q-18 39 -27.5 85.5t-11.5 81.5t-2 91zM399 1637.5q0 24.5 16.5 44.5t45.5 20q40 0 56 -32t0 -64.5t-56 -32.5q-29 0 -45.5 20t-16.5 44.5z M689 1605.5q-16 32.5 0 64.5t56 32q29 0 45.5 -20t16.5 -44.5t-16.5 -44.5t-45.5 -20q-40 0 -56 32.5z" />
<glyph unicode="&#xdd;" horiz-adv-x="1296" d="M87 1498.5q14 21.5 39 22t44 -19.5q79 -107 236.5 -320.5t236.5 -320.5q71 95 151.5 201.5t178.5 237t153 202.5q22 29 58 15q29 -11 30 -37q0 -13 -10 -25q-106 -141 -514 -680v-729q0 -28 -22.5 -39.5t-45 0t-22.5 39.5v721q-85 115 -255 344t-255 344q-17 23 -3 44.5z M611.5 1679q-0.5 24 21.5 43q113 73 176 115q23 15 44.5 0t22 -38.5t-21.5 -41.5q-81 -55 -176 -115q-23 -16 -44.5 -1.5t-22 38.5z" />
<glyph unicode="&#xde;" horiz-adv-x="1128" d="M82 1518q0 28 23 39t46 -0.5t23 -38.5v-187h373q136 0 235 -28.5t174 -112.5q82 -94 90.5 -233t-63.5 -242q-121 -176 -428 -176h-377h-2q4 -458 4 -494q0 -28 -23 -39.5t-46 0t-23 39.5q0 120 -3 703.5t-3 769.5zM174 1239q0 -405 2 -608h2q44 0 125.5 -0.5t148.5 -0.5 t126 1q110 0 196 36t136.5 114.5t41.5 189.5q-9 101 -81 173t-175 91q-26 5 -54.5 5.5t-70 -0.5t-55.5 -1h-342z" />
<glyph unicode="&#xdf;" horiz-adv-x="1296" d="M86 21q-11 23 0.5 46t38.5 23h51q-1 74 -3 221.5t-3 220.5l-6 564q-2 144 59.5 250t192.5 151q72 25 153 30t159 -13t144 -54.5t112.5 -100t59.5 -145.5q15 -100 -19 -196t-107 -160q150 -35 221 -139q58 -85 71.5 -205t-16.5 -217q-33 -117 -122 -194t-197.5 -99 t-226.5 6t-206 107q-20 18 -11.5 42.5t31.5 31.5t46 -9q67 -61 172 -84t199 -4q90 20 151 89t80 163q20 73 8 169t-59 157q-76 104 -285 108q-25 1 -37.5 20.5t-5 41t30.5 28.5q72 23 122 84t67 132.5t-4 147t-81 124.5q-56 45 -134.5 66t-158 13t-149.5 -37.5t-116.5 -90.5 t-51.5 -142q-4 -19 -1 -149.5t3 -149.5q2 -137 5 -412.5t5 -412.5q0 -19 -14 -32t-33 -13h-96q-28 0 -39 23z" />
<glyph unicode="&#xe0;" horiz-adv-x="1292" d="M84 55q80 216 524 1434q12 33 44.5 33t43.5 -33q32 -90 222 -622t290 -814q9 -26 -9 -42t-44 -11.5t-35 29.5q-16 45 -62 173.5t-71 198.5h-678q-99 -270 -137 -370q-8 -26 -33.5 -30.5t-44.5 12t-10 42.5zM342 494h612q-66 188 -303 849q-55 -153 -159.5 -438 t-149.5 -411zM415.5 1739q-0.5 -24 20.5 -43q57 -35 176 -113q15 -9 29 -7.5t23.5 12t14 23t-0.5 27t-19 23.5q-63 42 -176 115q-24 16 -45.5 1.5t-22 -38.5z" />
<glyph unicode="&#xe1;" horiz-adv-x="1292" d="M84 55q80 216 524 1434q12 33 44.5 33t43.5 -33q32 -90 222 -622t290 -814q9 -26 -9 -42t-44 -11.5t-35 29.5q-16 45 -62 173.5t-71 198.5h-678q-99 -270 -137 -370q-8 -26 -33.5 -30.5t-44.5 12t-10 42.5zM342 494h612q-66 188 -303 849q-55 -153 -159.5 -438 t-149.5 -411zM609.5 1669q-0.5 24 21.5 43q113 73 176 115q23 15 44.5 0t22 -38.5t-21.5 -41.5q-81 -55 -176 -115q-23 -16 -44.5 -1.5t-22 38.5z" />
<glyph unicode="&#xe2;" horiz-adv-x="1210" d="M2 55q80 216 524 1434q12 33 44.5 33t43.5 -33q32 -90 222 -622t290 -814q9 -26 -9 -42t-44 -11.5t-35 29.5q-16 45 -62 173.5t-71 198.5h-678q-99 -270 -137 -370q-8 -26 -33.5 -30.5t-44 12t-10.5 42.5zM260 494h612q-66 188 -303 849q-55 -153 -159.5 -438 t-149.5 -411zM350.5 1591q-0.5 24 20.5 43q20 13 81.5 53t94.5 62q25 14 47 0q29 -19 86.5 -57.5t85.5 -57.5q23 -16 21 -43t-21.5 -38.5t-44.5 1.5q-91 59 -150 101q-26 -17 -77 -51t-76 -50q-24 -16 -45.5 -1.5t-22 38.5z" />
<glyph unicode="&#xe3;" horiz-adv-x="1292" d="M84 55q80 216 524 1434q12 33 44.5 33t43.5 -33q32 -90 222 -622t290 -814q9 -26 -9 -42t-44 -11.5t-35 29.5q-16 45 -62 173.5t-71 198.5h-678q-99 -270 -137 -370q-8 -26 -33.5 -30.5t-44.5 12t-10 42.5zM342 494h612q-66 188 -303 849q-55 -153 -159.5 -438 t-149.5 -411zM420 1671q23 54 70 79.5t100 6.5q10 -4 36 -21t50.5 -30.5t50 -22.5t42 3t19.5 47q3 28 27.5 39.5t46.5 0t19 -39.5q-5 -59 -39.5 -99t-91.5 -47q-46 -6 -91 19q-11 6 -32 22.5t-35.5 25t-32.5 14t-32.5 -5.5t-26.5 -38q-14 -23 -36 -23.5t-38.5 22t-5.5 48.5z " />
<glyph unicode="&#xe4;" horiz-adv-x="1210" d="M2 55q80 216 524 1434q12 33 44.5 33t43.5 -33q32 -90 222 -622t290 -814q9 -26 -9 -42t-44 -11.5t-35 29.5q-16 45 -62 173.5t-71 198.5h-678q-99 -270 -137 -370q-8 -26 -33.5 -30.5t-44 12t-10.5 42.5zM260 494h612q-66 188 -303 849q-55 -153 -159.5 -438 t-149.5 -411zM376 1637.5q0 24.5 16.5 44.5t45.5 20q40 0 56 -32t0 -64.5t-56 -32.5q-29 0 -45.5 20t-16.5 44.5zM667 1605.5q-16 32.5 0 64.5t56 32q29 0 45.5 -20t16.5 -44.5t-16.5 -44.5t-45.5 -20q-40 0 -56 32.5z" />
<glyph unicode="&#xe5;" horiz-adv-x="1210" d="M2 55q80 216 524 1434q12 33 44.5 33t43.5 -33q32 -90 222 -622t290 -814q9 -26 -9 -42t-44 -11.5t-35 29.5q-16 45 -62 173.5t-71 198.5h-678q-99 -270 -137 -370q-8 -26 -33.5 -30.5t-44 12t-10.5 42.5zM260 494h612q-66 188 -303 849q-55 -153 -159.5 -438 t-149.5 -411zM381 1602v8v8q2 81 43.5 138t120.5 67q86 12 153.5 -39.5t71.5 -138.5q3 -79 -39 -138.5t-119 -72.5q-86 -15 -154 34t-77 134zM473 1610q3 -55 57.5 -78.5t100.5 4.5q54 30 47 109q-6 54 -53.5 77.5t-96.5 1.5q-35 -17 -45 -43.5t-10 -70.5z" />
<glyph unicode="&#xe6;" horiz-adv-x="2199" d="M84 55q80 216 524 1434q12 33 44.5 33t43.5 -33q32 -90 222 -622t290 -814q9 -26 -9 -42t-44 -11.5t-35 29.5q-16 45 -62 173.5t-71 198.5h-678q-99 -270 -137 -370q-8 -26 -33.5 -30.5t-44.5 12t-10 42.5zM342 494h612q-66 188 -303 849q-55 -153 -159.5 -438 t-149.5 -411zM1120 43v1423q0 19 13 32t32 13h910q27 0 38 -22.5t0 -45t-38 -22.5h-863v-442h773q27 0 38 -23t0 -46t-38 -23h-773v-797h863q27 0 38 -23t0 -46t-38 -23h-910q-19 0 -32 13t-13 32z" />
<glyph unicode="&#xe7;" horiz-adv-x="1378" d="M82.5 721q-5.5 122 20.5 244t83 223q87 152 231.5 244.5t313.5 93.5q374 3 557 -269q16 -23 1.5 -45t-38.5 -22.5t-43 20.5q-50 74 -126.5 127t-162.5 77.5t-179 22.5t-177 -32q-121 -45 -211 -146.5t-134 -225t-46 -255.5q-2 -131 36 -256t122 -231.5t202 -159.5 q86 -39 183.5 -46.5t188 14.5t171.5 76t133 132q16 23 43 21t38.5 -21.5t-1.5 -44.5q-81 -122 -203.5 -189.5t-265.5 -76.5q-4 -104 -39 -164q-50 -89 -178 -92q-28 -1 -39.5 21.5t0 46t39.5 24.5q68 1 94.5 45t30.5 117q-51 3 -100 12q-125 23 -227.5 92t-168 165.5 t-104.5 216t-44.5 241.5z" />
<glyph unicode="&#xe8;" horiz-adv-x="1161" d="M82 45v1423q0 19 13 32t32 13h909q27 0 38 -22.5t0 -45t-38 -22.5h-862v-442h772q27 0 38 -23t0 -46t-38 -23h-772v-797h862q27 0 38 -23t0 -46t-38 -23h-909q-19 0 -32 13t-13 32zM432.5 1771q-0.5 -24 20.5 -42q57 -36 176 -113q15 -9 29 -7.5t23.5 12t14 23t-0.5 27 t-19 23.5q-35 23 -100 65t-76 49q-24 16 -45.5 1.5t-22 -38.5z" />
<glyph unicode="&#xe9;" horiz-adv-x="1161" d="M82 45v1423q0 19 13 32t32 13h909q27 0 38 -22.5t0 -45t-38 -22.5h-862v-442h772q27 0 38 -23t0 -46t-38 -23h-772v-797h862q27 0 38 -23t0 -46t-38 -23h-909q-19 0 -32 13t-13 32zM560.5 1669q-0.5 24 21.5 43q113 73 176 115q23 15 44.5 0t22 -38.5t-21.5 -41.5 q-81 -55 -176 -115q-23 -16 -44.5 -1.5t-22 38.5z" />
<glyph unicode="&#xea;" horiz-adv-x="1161" d="M82 45v1423q0 19 13 32t32 13h909q27 0 38 -22.5t0 -45t-38 -22.5h-862v-442h772q27 0 38 -23t0 -46t-38 -23h-772v-797h862q27 0 38 -23t0 -46t-38 -23h-909q-19 0 -32 13t-13 32zM372.5 1645q-0.5 24 20.5 43q23 15 83.5 53.5t92.5 60.5q25 14 47 0q28 -19 85.5 -56.5 t86.5 -57.5q23 -16 21 -43t-21.5 -38.5t-44.5 1.5q-96 62 -149 100q-26 -16 -77.5 -49.5t-76.5 -50.5q-24 -16 -45.5 -1.5t-22 38.5z" />
<glyph unicode="&#xeb;" horiz-adv-x="1161" d="M82 45v1423q0 19 13 32t32 13h909q27 0 38 -22.5t0 -45t-38 -22.5h-862v-442h772q27 0 38 -23t0 -46t-38 -23h-772v-797h862q27 0 38 -23t0 -46t-38 -23h-909q-19 0 -32 13t-13 32zM384 1711.5q0 24.5 16.5 44.5t45.5 20q40 0 56 -32t0 -64.5t-56 -32.5q-29 0 -45.5 20 t-16.5 44.5zM675 1679.5q-16 32.5 0 64.5t56 32q29 0 45.5 -20t16.5 -44.5t-16.5 -44.5t-45.5 -20q-40 0 -56 32.5z" />
<glyph unicode="&#xec;" horiz-adv-x="253" d="M-94.5 1786q-0.5 -24 20.5 -43q57 -36 176 -113q15 -9 29.5 -7.5t23.5 12t13.5 23t0 27t-18.5 23.5q-9 6 -177 115q-24 16 -45.5 1.5t-22 -38.5zM82 43v1425q0 28 22.5 39.5t45 0t22.5 -39.5v-1425q0 -28 -22.5 -39.5t-45 0t-22.5 39.5z" />
<glyph unicode="&#xed;" horiz-adv-x="417" d="M164 43v1425q0 28 22.5 39.5t45 0t22.5 -39.5v-1425q0 -28 -22.5 -39.5t-45 0t-22.5 39.5zM179.5 1669q-0.5 24 21.5 43q113 73 176 115q23 15 44.5 0t22 -38.5t-21.5 -41.5q-81 -55 -176 -115q-23 -16 -44.5 -1.5t-22 38.5z" />
<glyph unicode="&#xee;" horiz-adv-x="600" d="M81.5 1641q-0.5 24 20.5 42q22 15 83.5 54t93.5 61q25 14 47 0q28 -19 85.5 -57t86.5 -58q23 -16 21 -42.5t-21.5 -38t-44.5 1.5q-106 69 -150 100q-25 -16 -76 -49.5t-77 -50.5q-24 -16 -46 -1.5t-22.5 38.5zM248 43v1425q0 28 22.5 39.5t45 0t22.5 -39.5v-1425 q0 -28 -22.5 -39.5t-45 0t-22.5 39.5z" />
<glyph unicode="&#xef;" horiz-adv-x="571" d="M81 1675.5q0 23.5 16.5 43.5t45.5 20t45.5 -20t16.5 -43.5t-16.5 -43.5t-45.5 -20t-45.5 20t-16.5 43.5zM240 43v1425q0 28 22.5 39.5t45 0t22.5 -39.5v-1425q0 -28 -22.5 -39.5t-45 0t-22.5 39.5zM364 1675.5q0 23.5 16.5 43.5t45.5 20q40 0 56 -31.5t0 -63.5t-56 -32 q-29 0 -45.5 20t-16.5 43.5z" />
<glyph unicode="&#xf0;" horiz-adv-x="1273" d="M87.5 764.5q-11.5 23.5 0 46.5t39.5 23h653q28 0 39.5 -23t0 -46.5t-39.5 -23.5h-653q-28 0 -39.5 23.5zM178 1470q0 19 13 32.5t32 13.5q44 0 117.5 2.5t128 4.5t128 0t129.5 -8.5t120.5 -23.5t114 -43t96 -68.5t78.5 -99.5q21 -36 34 -76.5t17.5 -90t5.5 -81t-0.5 -93 t-1.5 -83.5v-422q-5 -128 -76 -228t-181 -152.5t-237 -53.5q-157 -2 -465 2q-19 0 -33 13t-14 32q0 238 -3 711.5t-3 711.5zM270 1425q0 -222 3 -666.5t3 -666.5q26 -1 84 -3q92 0 191 -4.5t195.5 13t173 50t125.5 106t53 180.5v369q0 23 4.5 114.5t0.5 152.5t-22 112 q-21 59 -58.5 103t-81.5 70t-101 41.5t-109 21t-113 5.5q-233 0 -348 2z" />
<glyph unicode="&#xf1;" horiz-adv-x="1198" d="M82 45v1448q0 35 33.5 43.5t52.5 -20.5l56 -87.5t63 -95.5q90 -138 344.5 -529t394.5 -605v1294q0 27 22.5 38t45 0t22.5 -38v-1448q0 -35 -33.5 -44t-50.5 19q-23 33 -63 95.5l-56 87.5q-204 312 -739 1136v-1294q0 -28 -23 -39.5t-46 0t-23 39.5zM397 1671 q23 54 70 79.5t100 6.5q10 -4 36.5 -21t51 -30.5t49.5 -22.5t42 3t20 47q3 28 27 39.5t46 0t19 -39.5q-5 -59 -39.5 -99t-91.5 -47q-46 -6 -90 19q-11 6 -32.5 22.5t-36 25t-32.5 14t-32.5 -5.5t-26.5 -38q-14 -23 -36 -23.5t-38.5 22t-5.5 48.5z" />
<glyph unicode="&#xf2;" d="M82.5 731.5q-10.5 254.5 107.5 462.5q73 131 192 219.5t260.5 115t289.5 -27.5q314 -117 432 -530q0 -1 1 -4t1 -4t1 -4.5t1 -4.5q17 -86 17 -176t-15.5 -177.5t-49 -170.5t-82 -154.5t-117.5 -130t-152 -96.5q-139 -60 -276 -47.5t-259 86t-205 193.5 q-136 196 -146.5 450.5zM174.5 797.5q-5.5 -141.5 38.5 -277.5t133 -239q130 -150 314.5 -181.5t351.5 78.5q87 60 150 150t93 189.5t37.5 209.5t-14.5 211q-24 87 -60 163t-87.5 144t-123.5 117t-159 70q-130 33 -256 -10t-218 -137t-143 -218q-51 -128 -56.5 -269.5z M489.5 1780q-0.5 -24 20.5 -43q57 -35 176 -113q15 -9 29 -7.5t23.5 12t14 23t-0.5 27t-19 23.5q-63 42 -176 115q-24 16 -45.5 1.5t-22 -38.5z" />
<glyph unicode="&#xf3;" d="M82.5 731.5q-10.5 254.5 107.5 462.5q73 131 192 219.5t260.5 115t289.5 -27.5q314 -117 432 -530q0 -1 1 -4t1 -4t1 -4.5t1 -4.5q17 -86 17 -176t-15.5 -177.5t-49 -170.5t-82 -154.5t-117.5 -130t-152 -96.5q-139 -60 -276 -47.5t-259 86t-205 193.5 q-136 196 -146.5 450.5zM174.5 797.5q-5.5 -141.5 38.5 -277.5t133 -239q130 -150 314.5 -181.5t351.5 78.5q87 60 150 150t93 189.5t37.5 209.5t-14.5 211q-24 87 -60 163t-87.5 144t-123.5 117t-159 70q-130 33 -256 -10t-218 -137t-143 -218q-51 -128 -56.5 -269.5z M660.5 1669q-0.5 24 21.5 43q113 73 176 115q23 15 44.5 0t22 -38.5t-21.5 -41.5q-81 -55 -176 -115q-23 -16 -44.5 -1.5t-22 38.5z" />
<glyph unicode="&#xf4;" d="M82.5 731.5q-10.5 254.5 107.5 462.5q73 131 192 219.5t260.5 115t289.5 -27.5q314 -117 432 -530q0 -1 1 -4t1 -4t1 -4.5t1 -4.5q17 -86 17 -176t-15.5 -177.5t-49 -170.5t-82 -154.5t-117.5 -130t-152 -96.5q-139 -60 -276 -47.5t-259 86t-205 193.5 q-136 196 -146.5 450.5zM174.5 797.5q-5.5 -141.5 38.5 -277.5t133 -239q130 -150 314.5 -181.5t351.5 78.5q87 60 150 150t93 189.5t37.5 209.5t-14.5 211q-24 87 -60 163t-87.5 144t-123.5 117t-159 70q-130 33 -256 -10t-218 -137t-143 -218q-51 -128 -56.5 -269.5z M526.5 1634q-0.5 24 20.5 43q20 13 81.5 53t94.5 62q25 14 47 0q28 -19 86 -57.5t86 -57.5q23 -16 21 -43t-21.5 -38.5t-44.5 1.5q-81 52 -149 101q-25 -17 -77 -51t-77 -50q-24 -16 -45.5 -1.5t-22 38.5z" />
<glyph unicode="&#xf5;" d="M82.5 731.5q-10.5 254.5 107.5 462.5q73 131 192 219.5t260.5 115t289.5 -27.5q314 -117 432 -530q0 -1 1 -4t1 -4t1 -4.5t1 -4.5q17 -86 17 -176t-15.5 -177.5t-49 -170.5t-82 -154.5t-117.5 -130t-152 -96.5q-139 -60 -276 -47.5t-259 86t-205 193.5 q-136 196 -146.5 450.5zM174.5 797.5q-5.5 -141.5 38.5 -277.5t133 -239q130 -150 314.5 -181.5t351.5 78.5q87 60 150 150t93 189.5t37.5 209.5t-14.5 211q-24 87 -60 163t-87.5 144t-123.5 117t-159 70q-130 33 -256 -10t-218 -137t-143 -218q-51 -128 -56.5 -269.5z M518 1671q23 54 70 79.5t100 6.5q10 -4 36.5 -21t51 -30.5t49.5 -22.5t42 3t20 47q3 28 27 39.5t46 0t19 -39.5q-5 -59 -39.5 -99t-91.5 -47q-46 -6 -90 19q-11 6 -32.5 22.5t-36 25t-32.5 14t-32.5 -5.5t-26.5 -38q-14 -23 -36 -23.5t-38.5 22t-5.5 48.5z" />
<glyph unicode="&#xf6;" d="M82.5 731.5q-10.5 254.5 107.5 462.5q73 131 192 219.5t260.5 115t289.5 -27.5q314 -117 432 -530q0 -1 1 -4t1 -4t1 -4.5t1 -4.5q17 -86 17 -176t-15.5 -177.5t-49 -170.5t-82 -154.5t-117.5 -130t-152 -96.5q-139 -60 -276 -47.5t-259 86t-205 193.5 q-136 196 -146.5 450.5zM174.5 797.5q-5.5 -141.5 38.5 -277.5t133 -239q130 -150 314.5 -181.5t351.5 78.5q87 60 150 150t93 189.5t37.5 209.5t-14.5 211q-24 87 -60 163t-87.5 144t-123.5 117t-159 70q-130 33 -256 -10t-218 -137t-143 -218q-51 -128 -56.5 -269.5z M546 1688.5q0 24.5 16.5 44.5t45.5 20q40 0 56 -32.5t0 -64.5t-56 -32q-29 0 -45.5 20t-16.5 44.5zM837 1656q-16 32 0 64.5t56 32.5q29 0 45.5 -20t16.5 -44.5t-16.5 -44.5t-45.5 -20q-40 0 -56 32z" />
<glyph unicode="&#xf7;" horiz-adv-x="907" d="M87.5 685q-11.5 23 0 46t39.5 23h653q28 0 39.5 -23t0 -46t-39.5 -23h-653q-28 0 -39.5 23zM376 459q0 31 21 56.5t58 25.5t58 -25.5t21 -56.5t-21 -56.5t-58 -25.5t-58 25.5t-21 56.5zM376 956q0 31 21 56.5t58 25.5t58 -25.5t21 -56.5t-21 -56.5t-58 -25.5t-58 25.5 t-21 56.5z" />
<glyph unicode="&#xf8;" d="M82.5 731.5q-10.5 254.5 107.5 462.5q73 131 192 219.5t260.5 115t289.5 -27.5q314 -117 432 -530q0 -1 1 -4t1 -4t1 -4.5t1 -4.5q17 -86 17 -176t-15.5 -177.5t-49 -170.5t-82 -154.5t-117.5 -130t-152 -96.5q-139 -60 -276 -47.5t-259 86t-205 193.5 q-136 196 -146.5 450.5zM174.5 797.5q-5.5 -141.5 38.5 -277.5t133 -239q130 -150 314.5 -181.5t351.5 78.5q87 60 150 150t93 189.5t37.5 209.5t-14.5 211q-24 87 -60 163t-87.5 144t-123.5 117t-159 70q-130 33 -256 -10t-218 -137t-143 -218q-51 -128 -56.5 -269.5z M408 39q13 34 36 98.5t31 87.5q79 217 236.5 650.5t236.5 650.5q9 26 35 31t44 -12t9 -44q-11 -30 -33 -91.5t-34 -92.5q-79 -217 -235.5 -651.5t-235.5 -651.5q-9 -26 -35.5 -30.5t-45 12.5t-9.5 43z" />
<glyph unicode="&#xf9;" horiz-adv-x="1185" d="M82 541v344v583q0 28 23 39.5t46 0t23 -39.5v-602v-305q0 -7 -0.5 -43.5t0 -49t2.5 -40.5t7.5 -48.5t13.5 -41.5q37 -93 112 -153t163 -80t182 -6.5t171 58t128.5 125t54.5 181.5q4 149 4 317t-2 372.5t-2 315.5q0 28 23 39.5t46 0t23 -39.5v-688q0 -31 1.5 -102.5 t1.5 -110t-5 -101.5t-16 -106t-34 -93.5t-57 -90.5q-68 -79 -164 -124.5t-198.5 -50t-200.5 22.5t-179.5 94.5t-125.5 164.5q-18 39 -27.5 85.5t-11.5 81.5t-2 91zM405.5 1751q-0.5 -24 20.5 -43q57 -35 176 -113q15 -9 29 -7.5t23.5 12t14 23t-0.5 27t-19 23.5 q-63 42 -176 115q-24 16 -45.5 1.5t-22 -38.5z" />
<glyph unicode="&#xfa;" horiz-adv-x="1185" d="M82 541v344v583q0 28 23 39.5t46 0t23 -39.5v-602v-305q0 -7 -0.5 -43.5t0 -49t2.5 -40.5t7.5 -48.5t13.5 -41.5q37 -93 112 -153t163 -80t182 -6.5t171 58t128.5 125t54.5 181.5q4 149 4 317t-2 372.5t-2 315.5q0 28 23 39.5t46 0t23 -39.5v-688q0 -31 1.5 -102.5 t1.5 -110t-5 -101.5t-16 -106t-34 -93.5t-57 -90.5q-68 -79 -164 -124.5t-198.5 -50t-200.5 22.5t-179.5 94.5t-125.5 164.5q-18 39 -27.5 85.5t-11.5 81.5t-2 91zM543.5 1669q-0.5 24 21.5 43q113 73 176 115q23 15 44.5 0t22 -38.5t-21.5 -41.5q-81 -55 -176 -115 q-23 -16 -44.5 -1.5t-22 38.5z" />
<glyph unicode="&#xfb;" horiz-adv-x="1185" d="M82 541v344v583q0 28 23 39.5t46 0t23 -39.5v-602v-305q0 -7 -0.5 -43.5t0 -49t2.5 -40.5t7.5 -48.5t13.5 -41.5q37 -93 112 -153t163 -80t182 -6.5t171 58t128.5 125t54.5 181.5q4 149 4 317t-2 372.5t-2 315.5q0 28 23 39.5t46 0t23 -39.5v-688q0 -31 1.5 -102.5 t1.5 -110t-5 -101.5t-16 -106t-34 -93.5t-57 -90.5q-68 -79 -164 -124.5t-198.5 -50t-200.5 22.5t-179.5 94.5t-125.5 164.5q-18 39 -27.5 85.5t-11.5 81.5t-2 91zM378.5 1608q-0.5 24 20.5 43q23 15 83.5 53.5t92.5 60.5q10 6 24.5 6t23.5 -6q28 -19 85.5 -57t86.5 -57 q23 -16 21 -43t-21.5 -38.5t-44.5 1.5q-106 69 -150 100q-26 -16 -77 -49.5t-77 -50.5q-24 -16 -45.5 -1.5t-22 38.5z" />
<glyph unicode="&#xfc;" horiz-adv-x="1185" d="M82 541v344v583q0 28 23 39.5t46 0t23 -39.5v-602v-305q0 -7 -0.5 -43.5t0 -49t2.5 -40.5t7.5 -48.5t13.5 -41.5q37 -93 112 -153t163 -80t182 -6.5t171 58t128.5 125t54.5 181.5q4 149 4 317t-2 372.5t-2 315.5q0 28 23 39.5t46 0t23 -39.5v-688q0 -31 1.5 -102.5 t1.5 -110t-5 -101.5t-16 -106t-34 -93.5t-57 -90.5q-68 -79 -164 -124.5t-198.5 -50t-200.5 22.5t-179.5 94.5t-125.5 164.5q-18 39 -27.5 85.5t-11.5 81.5t-2 91zM393 1653.5q0 24.5 16.5 44.5t45.5 20q40 0 56 -32t0 -64.5t-56 -32.5q-29 0 -45.5 20t-16.5 44.5z M683 1621.5q-16 32.5 0 64.5t56 32q29 0 45.5 -20t16.5 -44.5t-16.5 -44.5t-45.5 -20q-40 0 -56 32.5z" />
<glyph unicode="&#xfd;" horiz-adv-x="1296" d="M87 1498.5q14 21.5 39 22t44 -19.5q79 -107 236.5 -320.5t236.5 -320.5q71 95 151.5 201.5t178.5 237t153 202.5q22 29 58 15q29 -11 30 -37q0 -13 -10 -25q-106 -141 -514 -680v-729q0 -28 -22.5 -39.5t-45 0t-22.5 39.5v721q-85 115 -255 344t-255 344q-17 23 -3 44.5z M599.5 1602q-0.5 24 21.5 43q11 7 76 49t100 65q23 15 44.5 0t22 -38.5t-21.5 -41.5q-64 -43 -176 -114q-23 -16 -44.5 -1.5t-22 38.5z" />
<glyph unicode="&#xfe;" horiz-adv-x="1128" d="M82 1518q0 28 23 39t46 -0.5t23 -38.5v-187h373q136 0 235 -28.5t174 -112.5q82 -94 90.5 -233t-63.5 -242q-121 -176 -428 -176h-377h-2q4 -458 4 -494q0 -28 -23 -39.5t-46 0t-23 39.5q0 120 -3 703.5t-3 769.5zM174 1239q0 -405 2 -608h2q44 0 125.5 -0.5t148.5 -0.5 t126 1q110 0 196 36t136.5 114.5t41.5 189.5q-9 101 -81 173t-175 91q-26 5 -54.5 5.5t-70 -0.5t-55.5 -1h-342z" />
<glyph unicode="&#xff;" horiz-adv-x="1296" d="M87 1498.5q14 21.5 39 22t44 -19.5q79 -107 236.5 -320.5t236.5 -320.5q71 95 151.5 201.5t178.5 237t153 202.5q22 29 58 15q29 -11 30 -37q0 -13 -10 -25q-106 -141 -514 -680v-729q0 -28 -22.5 -39.5t-45 0t-22.5 39.5v721q-85 115 -255 344t-255 344q-17 23 -3 44.5z M446 1637.5q0 24.5 16.5 44.5t45.5 20q40 0 56 -32t0 -64.5t-56 -32.5q-29 0 -45.5 20t-16.5 44.5zM737 1605.5q-16 32.5 0 64.5t56 32q29 0 45.5 -20t16.5 -44.5t-16.5 -44.5t-45.5 -20q-40 0 -56 32.5z" />
<glyph unicode="&#x152;" horiz-adv-x="2375" d="M82.5 731.5q-10.5 254.5 107.5 462.5q73 131 192 219.5t260.5 115t289.5 -27.5q314 -117 432 -530q0 -1 1 -4t1 -4t1 -4.5t1 -4.5q17 -86 17 -176t-15.5 -177.5t-49 -170.5t-82 -154.5t-117.5 -130t-152 -96.5q-139 -60 -276 -47.5t-259 86t-205 193.5 q-136 196 -146.5 450.5zM174.5 797.5q-5.5 -141.5 38.5 -277.5t133 -239q130 -150 314.5 -181.5t351.5 78.5q87 60 150 150t93 189.5t37.5 209.5t-14.5 211q-24 87 -60 163t-87.5 144t-123.5 117t-159 70q-130 33 -256 -10t-218 -137t-143 -218q-51 -128 -56.5 -269.5z M1296 51v1424q0 19 13 32t32 13h910q27 0 38 -22.5t0 -45t-38 -22.5h-862v-443h772q27 0 38 -23t0 -46t-38 -23h-772v-797h862q27 0 38 -23t0 -46t-38 -23h-910q-19 0 -32 13t-13 32z" />
<glyph unicode="&#x153;" horiz-adv-x="2375" d="M82.5 731.5q-10.5 254.5 107.5 462.5q73 131 192 219.5t260.5 115t289.5 -27.5q314 -117 432 -530q0 -1 1 -4t1 -4t1 -4.5t1 -4.5q17 -86 17 -176t-15.5 -177.5t-49 -170.5t-82 -154.5t-117.5 -130t-152 -96.5q-139 -60 -276 -47.5t-259 86t-205 193.5 q-136 196 -146.5 450.5zM174.5 797.5q-5.5 -141.5 38.5 -277.5t133 -239q130 -150 314.5 -181.5t351.5 78.5q87 60 150 150t93 189.5t37.5 209.5t-14.5 211q-24 87 -60 163t-87.5 144t-123.5 117t-159 70q-130 33 -256 -10t-218 -137t-143 -218q-51 -128 -56.5 -269.5z M1296 51v1424q0 19 13 32t32 13h910q27 0 38 -22.5t0 -45t-38 -22.5h-862v-443h772q27 0 38 -23t0 -46t-38 -23h-772v-797h862q27 0 38 -23t0 -46t-38 -23h-910q-19 0 -32 13t-13 32z" />
<glyph unicode="&#x178;" horiz-adv-x="1296" d="M87 1498.5q14 21.5 39 22t44 -19.5q79 -107 236.5 -320.5t236.5 -320.5q71 95 151.5 201.5t178.5 237t153 202.5q22 29 58 15q29 -11 30 -37q0 -13 -10 -25q-106 -141 -514 -680v-729q0 -28 -22.5 -39.5t-45 0t-22.5 39.5v721q-85 115 -255 344t-255 344q-17 23 -3 44.5z M458 1715.5q0 24.5 16.5 44.5t45.5 20q40 0 56 -32t0 -64.5t-56 -32.5q-29 0 -45.5 20t-16.5 44.5zM749 1683.5q-16 32.5 0 64.5t56 32q29 0 45.5 -20t16.5 -44.5t-16.5 -44.5t-45.5 -20q-40 0 -56 32.5z" />
<glyph unicode="&#x2c6;" horiz-adv-x="520" d="M42.5 1596q-0.5 24 20.5 42q22 15 83.5 54t93.5 61q25 14 47 0q29 -19 86.5 -57t85.5 -58q23 -16 21 -42.5t-21.5 -38t-44.5 1.5q-106 69 -150 100q-25 -16 -76 -49.5t-77 -50.5q-24 -16 -46 -1.5t-22.5 38.5z" />
<glyph unicode="&#x2dc;" horiz-adv-x="546" d="M45 1671q23 54 70 79.5t100 6.5q10 -4 36.5 -21t51 -30.5t49.5 -22.5t42 3t20 47q3 28 27 39.5t46 0t19 -39.5q-5 -59 -39.5 -99t-91.5 -47q-46 -6 -90 19q-11 6 -32.5 22.5t-36 25t-32.5 14t-32.5 -5.5t-26.5 -38q-14 -23 -36 -23.5t-38.5 22t-5.5 48.5z" />
<glyph unicode="&#x2000;" horiz-adv-x="922" />
<glyph unicode="&#x2001;" horiz-adv-x="1844" />
<glyph unicode="&#x2002;" horiz-adv-x="922" />
<glyph unicode="&#x2003;" horiz-adv-x="1844" />
<glyph unicode="&#x2004;" horiz-adv-x="614" />
<glyph unicode="&#x2005;" horiz-adv-x="461" />
<glyph unicode="&#x2006;" horiz-adv-x="307" />
<glyph unicode="&#x2007;" horiz-adv-x="307" />
<glyph unicode="&#x2008;" horiz-adv-x="230" />
<glyph unicode="&#x2009;" horiz-adv-x="368" />
<glyph unicode="&#x200a;" horiz-adv-x="102" />
<glyph unicode="&#x2010;" horiz-adv-x="907" d="M87.5 764.5q-11.5 23.5 0 46.5t39.5 23h653q28 0 39.5 -23t0 -46.5t-39.5 -23.5h-653q-28 0 -39.5 23.5z" />
<glyph unicode="&#x2011;" horiz-adv-x="907" d="M87.5 764.5q-11.5 23.5 0 46.5t39.5 23h653q28 0 39.5 -23t0 -46.5t-39.5 -23.5h-653q-28 0 -39.5 23.5z" />
<glyph unicode="&#x2012;" horiz-adv-x="907" d="M87.5 764.5q-11.5 23.5 0 46.5t39.5 23h653q28 0 39.5 -23t0 -46.5t-39.5 -23.5h-653q-28 0 -39.5 23.5z" />
<glyph unicode="&#x2013;" horiz-adv-x="907" d="M87.5 764.5q-11.5 23.5 0 46.5t39.5 23h653q28 0 39.5 -23t0 -46.5t-39.5 -23.5h-653q-28 0 -39.5 23.5z" />
<glyph unicode="&#x2014;" horiz-adv-x="1480" d="M46 764.5q-14 23.5 0 46.5t48 23h1292q33 0 46.5 -23t0 -46.5t-46.5 -23.5h-1292q-34 0 -48 23.5z" />
<glyph unicode="&#x2018;" horiz-adv-x="346" d="M86 1518q-19 98 78 184q21 18 44.5 7.5t28 -33.5t-13.5 -44q-26 -22 -36 -48t-9 -47t15.5 -50t26 -46t34.5 -46q18 -22 7 -46.5t-34.5 -28.5t-44.5 15q-29 37 -43.5 57.5t-31.5 57t-21 68.5z" />
<glyph unicode="&#x2019;" horiz-adv-x="354" d="M84.5 1579.5q9.5 24.5 32.5 29t45 -13.5q2 -2 14 -16.5t15.5 -18.5t14 -17.5t14.5 -19.5t12.5 -18t12.5 -20.5t9.5 -20.5t8.5 -23t5 -22q22 -99 -67 -188q-21 -19 -46 -10t-30.5 32t12.5 45q30 28 38 58.5t-6 64t-30 56t-45 57.5q-19 21 -9.5 45.5z" />
<glyph unicode="&#x201a;" horiz-adv-x="264" d="M-76.5 -180.5q11.5 23.5 39.5 24.5q34 1 58 14t37 30.5t20 47.5t9 53t3 58q0 28 23 39.5t46 0t23 -39.5q-1 -47 -3 -72.5t-11.5 -64.5t-26.5 -66q-50 -89 -178 -92q-28 -1 -39.5 21.5t0 46z" />
<glyph unicode="&#x201e;" horiz-adv-x="1228" d="M-57.5 -180.5q11.5 23.5 39.5 24.5q34 1 58 14t37 30.5t20 47.5t9 53t3 58q0 28 23 39.5t46 0t23 -39.5q-1 -47 -3 -72.5t-11.5 -64.5t-26.5 -66q-50 -89 -178 -92q-28 -1 -39.5 21.5t0 46zM-57.5 -180.5q11.5 23.5 39.5 24.5q34 1 58 14t37 30.5t20 47.5t9 53t3 58 q0 28 23 39.5t46 0t23 -39.5q-1 -47 -3 -72.5t-11.5 -64.5t-26.5 -66q-50 -89 -178 -92q-28 -1 -39.5 21.5t0 46z" />
<glyph unicode="&#x2022;" horiz-adv-x="1110" d="M307 868q0 66 26.5 123t85 95t138.5 38q78 0 136 -38t83.5 -95t25.5 -123t-25.5 -123t-83.5 -95t-136 -38q-80 0 -138.5 38t-85 95t-26.5 123z" />
<glyph unicode="&#x2026;" horiz-adv-x="1269" d="M82 46q0 26 17.5 47.5t47.5 21.5q31 0 49 -21.5t18 -47.5t-18 -47.5t-49 -21.5q-30 0 -47.5 21.5t-17.5 47.5zM568 46q0 26 17.5 47.5t47.5 21.5q31 0 49 -21.5t18 -47.5t-18 -47.5t-49 -21.5q-30 0 -47.5 21.5t-17.5 47.5zM1057 46q0 26 17.5 47.5t47.5 21.5 q31 0 49 -21.5t18 -47.5t-18 -47.5t-49 -21.5q-30 0 -47.5 21.5t-17.5 47.5z" />
<glyph unicode="&#x202f;" horiz-adv-x="368" />
<glyph unicode="&#x2039;" horiz-adv-x="399" d="M86 758q-11 27 2 47q21 28 72 101t71 100q16 23 43.5 19.5t38 -23.5t-3.5 -44q-87 -129 -127 -180q16 -26 65 -102.5t64 -102.5q15 -24 -0.5 -45t-39.5 -20.5t-42 22.5q-19 30 -72 114.5t-71 113.5z" />
<glyph unicode="&#x203a;" horiz-adv-x="403" d="M90 965q-15 24 0.5 45t39.5 20.5t42 -22.5q38 -58 143 -226q12 -29 0 -47q-23 -31 -75 -106t-68 -97q-16 -23 -43 -19.5t-38 23.5t3 44q98 146 127 182q-14 22 -64 98t-67 105z" />
<glyph unicode="&#x205f;" horiz-adv-x="461" />
<glyph unicode="&#x20ac;" horiz-adv-x="1288" d="M87.5 654q-11.5 23 0 46t39.5 23h53v129h-53q-28 0 -39.5 23t0 46t39.5 23h53q0 70 2 105q3 189 135 322.5t324 152.5q142 13 269.5 -42.5t209 -168.5t86.5 -256q1 -28 -21.5 -39.5t-46 0t-24.5 39.5q-2 76 -33 142.5t-80 112.5t-113.5 76.5t-134 39.5t-142.5 -3 t-136 -47q-115 -63 -158 -165t-43 -248v-21h287q28 0 39.5 -23t0 -46t-39.5 -23h-287v-129h287q28 0 39.5 -23t0 -46t-39.5 -23h-287v-113q0 -149 75 -259t216 -150q76 -18 152 -15.5t147 33t125.5 77t88.5 116t36 149.5q1 28 24.5 39.5t46 0t21.5 -39.5q-2 -81 -31 -155 t-77 -129.5t-112 -98.5t-137 -63t-151 -23.5t-155 20.5q-170 49 -265.5 182t-95.5 310v119h-55q-28 0 -39.5 23z" />
<glyph unicode="&#x2122;" horiz-adv-x="2723" d="M87.5 1446.5q-11.5 23.5 0 46.5t39.5 23h1034q28 0 39.5 -23t0 -46.5t-39.5 -23.5h-463v-1378q0 -28 -22.5 -39.5t-45 0t-22.5 39.5v1378h-481q-28 0 -39.5 23.5zM1370 41v1432q0 30 28 40.5t50 -8.5q64 -54 176.5 -147.5t205.5 -172t175 -147.5q357 296 559 465 q22 20 50 9t28 -42v-1429q0 -28 -23 -39t-46 0.5t-23 38.5v1333q-387 -325 -512 -428q-32 -26 -64 0q-274 228 -512 428v-1333q0 -28 -23 -39t-46 0.5t-23 38.5z" />
<glyph unicode="&#x25fc;" horiz-adv-x="1505" d="M0 0v1505h1505v-1505h-1505z" />
</font>
</defs>
</svg>
